<mxfile host="app.diagrams.net" agent="Mozilla/5.0 (Windows NT 10.0; Win64; x64) AppleWebKit/537.36 (KHTML, like Gecko) Chrome/138.0.0.0 Safari/537.36" version="28.0.9">
  <diagram name="Page-1" id="JC9udLYniC5sQIQm0z08">
    <mxGraphModel dx="1892" dy="562" grid="1" gridSize="10" guides="1" tooltips="1" connect="1" arrows="1" fold="1" page="1" pageScale="1" pageWidth="850" pageHeight="1100" math="0" shadow="0">
      <root>
        <mxCell id="0" />
        <mxCell id="1" parent="0" />
        <mxCell id="VRgb0AQ02M4O2JBaCQAd-22" value="" style="edgeStyle=orthogonalEdgeStyle;rounded=0;orthogonalLoop=1;jettySize=auto;html=1;" edge="1" parent="1" source="VRgb0AQ02M4O2JBaCQAd-1" target="VRgb0AQ02M4O2JBaCQAd-2">
          <mxGeometry relative="1" as="geometry" />
        </mxCell>
        <mxCell id="VRgb0AQ02M4O2JBaCQAd-1" value="&lt;div&gt;Evaluation Trigger (UI)&lt;span style=&quot;background-color: transparent; color: light-dark(rgb(0, 0, 0), rgb(255, 255, 255));&quot;&gt;&amp;nbsp; - Run Eval / Run Compare&amp;nbsp;&lt;/span&gt;&lt;/div&gt;" style="rounded=1;whiteSpace=wrap;html=1;fillColor=#ffe6cc;strokeColor=#d79b00;" vertex="1" parent="1">
          <mxGeometry x="-60" y="192.88" width="130" height="60" as="geometry" />
        </mxCell>
        <mxCell id="VRgb0AQ02M4O2JBaCQAd-24" value="" style="edgeStyle=orthogonalEdgeStyle;rounded=0;orthogonalLoop=1;jettySize=auto;html=1;" edge="1" parent="1" source="VRgb0AQ02M4O2JBaCQAd-2" target="VRgb0AQ02M4O2JBaCQAd-4">
          <mxGeometry relative="1" as="geometry" />
        </mxCell>
        <mxCell id="VRgb0AQ02M4O2JBaCQAd-2" value="" style="shape=image;verticalLabelPosition=bottom;labelBackgroundColor=default;verticalAlign=top;aspect=fixed;imageAspect=0;editableCssRules=.*;image=data:image/svg+xml,PHN2ZyB4bWxuczp4bGluaz0iaHR0cDovL3d3dy53My5vcmcvMTk5OS94bGluayIgeG1sbnM9Imh0dHA6Ly93d3cudzMub3JnLzIwMDAvc3ZnIiB4bWw6c3BhY2U9InByZXNlcnZlIiB2aWV3Qm94PSI2LjUgMCA0NSA1OCIgaWQ9IkNhcGFfMSIgdmVyc2lvbj0iMS4xIiB3aWR0aD0iNjIwLjY4OTY1NTE3MjQxMzgiIGhlaWdodD0iODAwIiBmaWxsPSIjMDAwMDAwIj4mI3hhOzxnPiYjeGE7CTxwYXRoIGQ9Ik01MC45NDksMTIuMTg3bC0xLjM2MS0xLjM2MWwtOS41MDQtOS41MDVjLTAuMDAxLTAuMDAxLTAuMDAxLTAuMDAxLTAuMDAyLTAuMDAxbC0wLjc3LTAuNzcxJiMxMDsmIzk7JiM5O0MzOC45NTcsMC4xOTUsMzguNDg2LDAsMzcuOTg1LDBIOC45NjNDNy43NzYsMCw2LjUsMC45MTYsNi41LDIuOTI2VjM5djE2LjUzN1Y1NmMwLDAuODM3LDAuODQxLDEuNjUyLDEuODM2LDEuOTA5JiMxMDsmIzk7JiM5O2MwLjA1MSwwLjAxNCwwLjEsMC4wMzMsMC4xNTIsMC4wNDNDOC42NDQsNTcuOTgzLDguODAzLDU4LDguOTYzLDU4aDQwLjA3NGMwLjE2LDAsMC4zMTktMC4wMTcsMC40NzUtMC4wNDgmIzEwOyYjOTsmIzk7YzAuMDUyLTAuMDEsMC4xMDEtMC4wMjksMC4xNTItMC4wNDNDNTAuNjU5LDU3LjY1Miw1MS41LDU2LjgzNyw1MS41LDU2di0wLjQ2M1YzOVYxMy45NzhDNTEuNSwxMy4yMTEsNTEuNDA3LDEyLjY0NCw1MC45NDksMTIuMTg3JiMxMDsmIzk7JiM5O3ogTTM5LjUsMy41NjVMNDcuOTM1LDEySDM5LjVWMy41NjV6IE04Ljk2Myw1NmMtMC4wNzEsMC0wLjEzNS0wLjAyNS0wLjE5OC0wLjA0OUM4LjYxLDU1Ljg3Nyw4LjUsNTUuNzIxLDguNSw1NS41MzdWNDFoNDF2MTQuNTM3JiMxMDsmIzk7JiM5O2MwLDAuMTg0LTAuMTEsMC4zNC0wLjI2NSwwLjQxNEM0OS4xNzIsNTUuOTc1LDQ5LjEwOCw1Niw0OS4wMzcsNTZIOC45NjN6IE04LjUsMzlWMi45MjZDOC41LDIuNzA5LDguNTMzLDIsOC45NjMsMmgyOC41OTUmIzEwOyYjOTsmIzk7QzM3LjUyNSwyLjEyNiwzNy41LDIuMjU2LDM3LjUsMi4zOTFWMTMuNzhjLTAuNTMyLTAuNDgtMS4yMjktMC43OC0yLTAuNzhjLTAuNTUzLDAtMSwwLjQ0OC0xLDFzMC40NDcsMSwxLDFjMC41NTIsMCwxLDAuNDQ5LDEsMXY0JiMxMDsmIzk7JiM5O2MwLDEuMiwwLjU0MiwyLjI2NiwxLjM4MiwzYy0wLjg0LDAuNzM0LTEuMzgyLDEuOC0xLjM4MiwzdjRjMCwwLjU1MS0wLjQ0OCwxLTEsMWMtMC41NTMsMC0xLDAuNDQ4LTEsMXMwLjQ0NywxLDEsMSYjMTA7JiM5OyYjOTtjMS42NTQsMCwzLTEuMzQ2LDMtM3YtNGMwLTEuMTAzLDAuODk3LTIsMi0yYzAuNTUzLDAsMS0wLjQ0OCwxLTFzLTAuNDQ3LTEtMS0xYy0xLjEwMywwLTItMC44OTctMi0ydi00JiMxMDsmIzk7JiM5O2MwLTAuNzcxLTAuMzAxLTEuNDY4LTAuNzgtMmgxMS4zODljMC4xMzUsMCwwLjI2NS0wLjAyNSwwLjM5MS0wLjA1OGMwLDAuMDE1LDAuMDAxLDAuMDIxLDAuMDAxLDAuMDM2VjM5SDguNXoiLz4mI3hhOwk8cGF0aCBkPSJNMTYuMzU0LDUxLjQzYy0wLjAxOSwwLjQ0Ni0wLjE3MSwwLjc2NC0wLjQ1OCwwLjk1cy0wLjY3MiwwLjI4LTEuMTU1LDAuMjhjLTAuMTkxLDAtMC4zOTYtMC4wMjItMC42MTUtMC4wNjgmIzEwOyYjOTsmIzk7cy0wLjQyOS0wLjA5OC0wLjYyOS0wLjE1N3MtMC4zODUtMC4xMjMtMC41NTQtMC4xOTFzLTAuMjk5LTAuMTM1LTAuMzktMC4xOThsLTAuNjk3LDEuMTA3YzAuMTgzLDAuMTM3LDAuNDA1LDAuMjYsMC42NywwLjM2OSYjMTA7JiM5OyYjOTtzMC41NCwwLjIwNywwLjgyNywwLjI5NHMwLjU2NSwwLjE1LDAuODM0LDAuMTkxczAuNTA0LDAuMDYyLDAuNzA0LDAuMDYyYzAuNDAxLDAsMC43OTEtMC4wMzksMS4xNjktMC4xMTYmIzEwOyYjOTsmIzk7YzAuMzc4LTAuMDc3LDAuNzEzLTAuMjE0LDEuMDA1LTAuNDFzMC41MjQtMC40NTYsMC42OTctMC43NzlzMC4yNi0wLjcyMywwLjI2LTEuMTk2di03Ljg0OGgtMS42NjhWNTEuNDN6Ii8+JiN4YTsJPHBhdGggZD0iTTI1LjA4Myw0OS4wNjRjLTAuMzE0LTAuMjI4LTAuNjU0LTAuNDIyLTEuMDE5LTAuNTgxcy0wLjcwMi0wLjMyMy0xLjAxMi0wLjQ5MnMtMC41NjktMC4zNjQtMC43NzktMC41ODgmIzEwOyYjOTsmIzk7cy0wLjMxNC0wLjUxOC0wLjMxNC0wLjg4MmMwLTAuMTQ2LDAuMDM2LTAuMjk5LDAuMTA5LTAuNDU4czAuMTczLTAuMzAzLDAuMzAxLTAuNDMxczAuMjczLTAuMjM0LDAuNDM4LTAuMzIxJiMxMDsmIzk7JiM5O3MwLjMzNy0wLjEzOSwwLjUyLTAuMTU3YzAuMzI4LTAuMDI3LDAuNTk3LTAuMDMyLDAuODA3LTAuMDE0czAuMzc4LDAuMDUsMC41MDYsMC4wOTZzMC4yMjYsMC4wOTEsMC4yOTQsMC4xMzcmIzEwOyYjOTsmIzk7czAuMTMsMC4wODIsMC4xODUsMC4xMDljMC4wMDktMC4wMDksMC4wMzYtMC4wNTUsMC4wODItMC4xMzdzMC4xMDEtMC4xODUsMC4xNjQtMC4zMDhzMC4xMzItMC4yNTUsMC4yMDUtMC4zOTYmIzEwOyYjOTsmIzk7czAuMTM3LTAuMjcxLDAuMTkxLTAuMzljLTAuMjY1LTAuMTczLTAuNjEtMC4yOTktMS4wMzktMC4zNzZzLTAuODUzLTAuMTE2LTEuMjcxLTAuMTE2Yy0wLjQxLDAtMC44LDAuMDYzLTEuMTY5LDAuMTkxJiMxMDsmIzk7JiM5O3MtMC42OTIsMC4zMTMtMC45NzEsMC41NTRzLTAuNDk5LDAuNTM1LTAuNjYzLDAuODgyUzIwLjQsNDYuMTMsMjAuNCw0Ni41NzZjMCwwLjQ5MiwwLjEwNCwwLjkwMiwwLjMxNCwxLjIzJiMxMDsmIzk7JiM5O3MwLjQ3NCwwLjYxMywwLjc5MywwLjg1NHMwLjY2MSwwLjQ1MSwxLjAyNSwwLjYyOXMwLjcwNCwwLjM1NSwxLjAxOSwwLjUzM3MwLjU3NiwwLjM3NiwwLjc4NiwwLjU5NXMwLjMxNCwwLjQ4MywwLjMxNCwwLjc5MyYjMTA7JiM5OyYjOTtjMCwwLjUxMS0wLjE0OCwwLjg5Ni0wLjQ0NCwxLjE1NXMtMC43MjMsMC4zOS0xLjI3OCwwLjM5Yy0wLjE4MywwLTAuMzc4LTAuMDE5LTAuNTg4LTAuMDU1cy0wLjQxOS0wLjA4NC0wLjYyOS0wLjE0NCYjMTA7JiM5OyYjOTtzLTAuNDEyLTAuMTIzLTAuNjA4LTAuMTkxcy0wLjM1Ny0wLjEzOS0wLjQ4NS0wLjIxMmwtMC4yODcsMS4xNzZjMC4xNTUsMC4xMzcsMC4zNCwwLjI1MywwLjU1NCwwLjM0OXMwLjQzOSwwLjE3MSwwLjY3NywwLjIyNiYjMTA7JiM5OyYjOTtjMC4yMzcsMC4wNTUsMC40NzIsMC4wOTQsMC43MDQsMC4xMTZzMC40NTgsMC4wMzQsMC42NzcsMC4wMzRjMC41MTEsMCwwLjk2Ni0wLjA3NywxLjM2Ny0wLjIzMnMwLjczOC0wLjM2MiwxLjAxMi0wLjYyMiYjMTA7JiM5OyYjOTtzMC40ODUtMC41NjEsMC42MzYtMC45MDJzMC4yMjYtMC42OTUsMC4yMjYtMS4wNmMwLTAuNTM4LTAuMTA0LTAuOTc4LTAuMzE0LTEuMzE5UzI1LjM5Nyw0OS4yOTIsMjUuMDgzLDQ5LjA2NHoiLz4mI3hhOwk8cGF0aCBkPSJNMzQuODcyLDQ1LjA3MmMtMC4zNzgtMC40MjktMC44Mi0wLjc1NC0xLjMyNi0wLjk3OHMtMS4wNi0wLjMzNS0xLjY2MS0wLjMzNXMtMS4xNTUsMC4xMTEtMS42NjEsMC4zMzUmIzEwOyYjOTsmIzk7cy0wLjk0OCwwLjU0OS0xLjMyNiwwLjk3OHMtMC42NzUsMC45NjQtMC44ODksMS42MDZzLTAuMzIxLDEuMzg4LTAuMzIxLDIuMjM1czAuMTA3LDEuNTk1LDAuMzIxLDIuMjQyczAuNTExLDEuMTg1LDAuODg5LDEuNjEzJiMxMDsmIzk7JiM5O3MwLjgyLDAuNzUyLDEuMzI2LDAuOTcxczEuMDYsMC4zMjgsMS42NjEsMC4zMjhzMS4xNTUtMC4xMDksMS42NjEtMC4zMjhzMC45NDgtMC41NDIsMS4zMjYtMC45NzFzMC42NzUtMC45NjYsMC44ODktMS42MTMmIzEwOyYjOTsmIzk7czAuMzIxLTEuMzk1LDAuMzIxLTIuMjQycy0wLjEwNy0xLjU5My0wLjMyMS0yLjIzNVMzNS4yNSw0NS41MDEsMzQuODcyLDQ1LjA3MnogTTM0LjE5NSw1MC42OTgmIzEwOyYjOTsmIzk7Yy0wLjEzNywwLjQ4Ny0wLjMyNiwwLjg4Mi0wLjU2NywxLjE4M3MtMC41MTUsMC41MTgtMC44MiwwLjY0OXMtMC42MjcsMC4xOTgtMC45NjQsMC4xOThjLTAuMzI4LDAtMC42NDEtMC4wNy0wLjkzNy0wLjIxMiYjMTA7JiM5OyYjOTtzLTAuNTYxLTAuMzY0LTAuNzkzLTAuNjdzLTAuNDE1LTAuNjk5LTAuNTQ3LTEuMTgzcy0wLjIwMy0xLjA2Ni0wLjIxMi0xLjc1YzAuMDA5LTAuNzAyLDAuMDgyLTEuMjk0LDAuMjE5LTEuNzc3JiMxMDsmIzk7JiM5O2MwLjEzNy0wLjQ4MywwLjMyNi0wLjg3NywwLjU2Ny0xLjE4M3MwLjUxNS0wLjUyMSwwLjgyLTAuNjQ5czAuNjI3LTAuMTkxLDAuOTY0LTAuMTkxYzAuMzI4LDAsMC42NDEsMC4wNjgsMC45MzcsMC4yMDUmIzEwOyYjOTsmIzk7czAuNTYxLDAuMzYsMC43OTMsMC42N3MwLjQxNSwwLjcwNCwwLjU0NywxLjE4M3MwLjIwMywxLjA2LDAuMjEyLDEuNzQzQzM0LjQwNSw0OS42MTYsMzQuMzMyLDUwLjIxMSwzNC4xOTUsNTAuNjk4eiIvPiYjeGE7CTxwb2x5Z29uIHBvaW50cz0iNDQuMDEyLDUwLjg2OSA0MC4wNjEsNDMuOTI0IDM4LjM5Myw0My45MjQgMzguMzkzLDU0IDQwLjA2MSw1NCA0MC4wNjEsNDcuMDU1IDQ0LjAxMiw1NCA0NS42OCw1NCA0NS42OCw0My45MjQgJiMxMDsmIzk7JiM5OzQ0LjAxMiw0My45MjQiLz4mI3hhOwk8cGF0aCBkPSJNMjAuNSwyMHYtNGMwLTAuNTUxLDAuNDQ4LTEsMS0xYzAuNTUzLDAsMS0wLjQ0OCwxLTFzLTAuNDQ3LTEtMS0xYy0xLjY1NCwwLTMsMS4zNDYtMywzdjRjMCwxLjEwMy0wLjg5NywyLTIsMiYjMTA7JiM5OyYjOTtjLTAuNTUzLDAtMSwwLjQ0OC0xLDFzMC40NDcsMSwxLDFjMS4xMDMsMCwyLDAuODk3LDIsMnY0YzAsMS42NTQsMS4zNDYsMywzLDNjMC41NTMsMCwxLTAuNDQ4LDEtMXMtMC40NDctMS0xLTEmIzEwOyYjOTsmIzk7Yy0wLjU1MiwwLTEtMC40NDktMS0xdi00YzAtMS4yLTAuNTQyLTIuMjY2LTEuMzgyLTNDMTkuOTU4LDIyLjI2NiwyMC41LDIxLjIsMjAuNSwyMHoiLz4mI3hhOwk8Y2lyY2xlIHI9IjEuNSIgY3k9IjE5LjUiIGN4PSIyOC41Ii8+JiN4YTsJPHBhdGggZD0iTTI4LjUsMjVjLTAuNTUzLDAtMSwwLjQ0OC0xLDF2M2MwLDAuNTUyLDAuNDQ3LDEsMSwxczEtMC40NDgsMS0xdi0zQzI5LjUsMjUuNDQ4LDI5LjA1MywyNSwyOC41LDI1eiIvPiYjeGE7PC9nPiYjeGE7PC9zdmc+;" vertex="1" parent="1">
          <mxGeometry x="117" y="190" width="51" height="65.7" as="geometry" />
        </mxCell>
        <mxCell id="VRgb0AQ02M4O2JBaCQAd-13" value="" style="edgeStyle=orthogonalEdgeStyle;rounded=0;orthogonalLoop=1;jettySize=auto;html=1;" edge="1" parent="1" source="VRgb0AQ02M4O2JBaCQAd-4" target="VRgb0AQ02M4O2JBaCQAd-5">
          <mxGeometry relative="1" as="geometry" />
        </mxCell>
        <mxCell id="VRgb0AQ02M4O2JBaCQAd-4" value="&lt;div&gt;Generate answer via&lt;/div&gt;&lt;div&gt;RAG API - /ask-question (context + question)&lt;/div&gt;" style="rounded=1;whiteSpace=wrap;html=1;fillColor=#d5e8d4;strokeColor=#82b366;" vertex="1" parent="1">
          <mxGeometry x="210" y="192.85" width="120" height="60" as="geometry" />
        </mxCell>
        <mxCell id="VRgb0AQ02M4O2JBaCQAd-14" value="" style="edgeStyle=orthogonalEdgeStyle;rounded=0;orthogonalLoop=1;jettySize=auto;html=1;" edge="1" parent="1" source="VRgb0AQ02M4O2JBaCQAd-5" target="VRgb0AQ02M4O2JBaCQAd-9">
          <mxGeometry relative="1" as="geometry" />
        </mxCell>
        <mxCell id="VRgb0AQ02M4O2JBaCQAd-5" value="&lt;div&gt;Preparing data for RAGAS (context, answer, gt)&lt;/div&gt;" style="rounded=1;whiteSpace=wrap;html=1;fillColor=#dae8fc;strokeColor=#6c8ebf;" vertex="1" parent="1">
          <mxGeometry x="374" y="192.85" width="120" height="60" as="geometry" />
        </mxCell>
        <mxCell id="VRgb0AQ02M4O2JBaCQAd-8" value="" style="shape=image;verticalLabelPosition=bottom;labelBackgroundColor=default;verticalAlign=top;aspect=fixed;imageAspect=0;image=data:image/png,iVBORw0KGgoAAAANSUhEUgAAAgAAAAIACAYAAAD0eNT6AAAACXBIWXMAAA7DAAAOwwHHb6hkAAAAGXRFWHRTb2Z0d2FyZQB3d3cuaW5rc2NhcGUub3Jnm+48GgAAIABJREFUeJzs3XeYXFX9P/D3596ZrUm2Jdlks5ude2d2N5AKAQnEQCgSqihNioCioBSpFvgqAlKtP0URVCzYQJSuEkAg0gOEQMKGZHdadjcJaduSrTNzP78/NihCIHNm7p075fN6njwPD8w5902ymfu5554CCCGEEEIIIYQQQgghhBBCCCGEEEIIIYQQQgghhBBCCCGEEEIIIYQQQgghhBBCCCGEECJzyO0AeUA3DKOeWffpYB9rZBCjjokmgrkGhInEqGSgdNfnxwPwAGAAvbv+3SjAvWDaToRtzNhOhE0WOApoUaJEtLS0dH1ra+uoG/+DQggh8o8UAAp8Pl8JUdH+GvM+TDwHwFwAM/Hfm7uTYgDWgXk1QG9awBuaZr0cDof7MnBtIYQQeUYKgI9QWzunvKxs8DANOMQCDiJgPoAit3O9hwWgFYznodFzHg892dbWts3tUEIIIbKfFADvY5pmMzMdT8BRAC0CUOx2JgUWgNdAeAyw/hEOh1/D2KsGIYQQ4n9IAQDAMIxGYs+nQHwKgIVu57FRB4MfIuK/hsPhFyDFgBBCiF0KtgCorZ1TXl4+dCozn0fAgW7ncR6vY+AuXae7g8HgVrfTCCGEcFfBFQCNjU176cRfAeEMABVu53HBKAEPWaDbI5H2Z90OI4QQwh0FUwCYpvlxYu0SBk4EoLudJxswsFID/7ihseHPy5Yti7udRwghRObkfQFgmk3Hgfk6jM3gF7vFUQbdVF1dcfeKFStibqcRQgjhvLwtAEzT/DhYuwnAwW5nySHrCXxzQ2PDb2REQAgh8lveFQCGYcwh0n8MxqFuZ8lZhDXMuDwSCT7hdhQhhBDOyJsCoL5+ZrXXO3wtgS6CvOO3Cf9LS9ClwY7gGreTCCGEsFc+FABkGIEvEPA9AFWuhaiogV5bD5o4BVpFNahqIqyOEEaf/2fSfSyurMRxE6vRNTKKzpFhdA2PoGtkFO+MjiLBri3hHwXhVk3DzcFgcMStEEIIIezlcTtAOvx+f4CZfpnp4X69th40vQmeBj+06U3Qp04Hij94HEAsrvYafUpxET49aeIH/n2cGcGhIazcMYDXd+7EGzt2IDw0nHJ+RUVgfJsTOMXv958XCoVeyNSFhRBCOCdXCwAyfU2XsMW3IAMH8VBlNTwz5sPTPAd6YBZoQmYHGjxEmFFWhhllZTi9dhIAoDcWx8qBASzv68MT3b1YP+xsQcDAXrDoWdP0/9SyEldFo9GMVSBCCCHsl3MFQGPjXlM9Wuy3DF7i5HX02nro8xbCM2t/6PV+gLLrbUml14NDKytwaGUFrmqcjnWDg3iiuxdPdHdjzcCgU5fVwHSpRp7DTNM8MxwOr3bqQkIIIZyVUwXA2Jr+2G8YmORE/zSuAt79DoZ3v8XQ6v1OXMIxLWVlaCkrw1fq69A5PIK/b9+OezZvxYYRR17bzwZrr/gN/9dDkdBPnbiAEEIIZ+VKAUCmL/B1MN8MQLO7c63ej6KDjoRn/0NB3mw67Tc1DSXFuGBaHb5UNxUv9e/A7za9g2d6eu0+CaiEQbeZZtNBAwOlX9y8edWAvd0LIYRwUtYXAPX1M6uLikb+CMbRtnZMGrxzD0TRESfm3NN+sjQiLKyYgIUVExAeGsYfN2/GXzdvxaBl2XcR5tPKywZnmqZ5UjgcbrevYyGEEE7K6vXypmk265r1DIAD7OqTNA3e/Q9F6eeuhHfhUaAJ1XZ1/QFWZwjx1teS/vysceU4vKrSkSxVXg8OqazEZ2onIcaMNQODSNjXfS1AZ1XXVL3a09MTsa9bIYQQTsnaEQDDaF7EbD1IQI0tHRLBM2cBio8+A9qUBlu6zEU1Xi+u8TXiC1On4LaujXhgy1a7CoFKtugxv89/figautueLoWqGdNm1IwUxT9NxLOYNcdXyGQCgeMEijIlHpJRJiHsk11T23fx+/ynMdHvABTb0Z/W4EfJiV+EbuxlR3dJi734OIbvuyPpz59WOxk3mT7nAu1GaGgYP+zoxOPdPXZ1ySB8JxwOXmdXhyI5phm4EIxbAExwO4tDLAbdxRy7VJahCpE+2yfUpcsw/Ocx0Z9gw82fysah5NQLUH7F9zN+888V/tIS/LylCb+c0YwpRbZMgCQwrjWMptuQpQVmPjLNwNVg3I78vfkDgEbg8zXyPLx48eKsHb0UIldk1RwA0wxcSKA7YENh4pm5H8rO/zb0ptmureHPpjkAe2KWluD02smwwFi5cyDtFQMEHFBVVe2fO2/Oo9Fo1MZZh+L9TNOcDab7UDgFl7+/d8f2nt7u5W4HESKXZc0IgOkLfGPXE0xaX2JUPgGl516F0vO+Bap0boJfPirTNXx9egPumTkD/tISO7r8bEe0625kWaGZb4i1S5BFf5czwSK+1O0MQuS6rPjSMH1Nl4Jwa7r9eJrnouzrP4ZnzgI7YhWs/caPx6NzZuEzk23Yb4lwhukL/AqF83SacQx83O0MmUaA2VzfPM3tHELkMtffoxmG/zyA/186fZCmoeiYM1B0+IkAZUVNk/OKNQ03+w3sO2E8rg1HMZzO3gGEz5tGYDAcCV5sX0LxHh88QaoAWLo1GcAGu/qrq6srKy0tnYcEJltEXrv6zWdEZAGJzfF4vLWjo8O2mcQiM1wtAPw+/2kMuhNpPB1S+QSUnHMlPM1zbUwm3nXypInYu6wMF61rR0d62wpf5DeaekOR9m/ZlU38R0FWvexhW/6/xzYbG74JTOewhVKQDFcljRmABo9eFDOMwANE1tfD4XCH27FEclz74jCM5kW7lvqlnEGr86Hsqz+Um7/D9i4vw8NzZuKI6vROQWTwNw0j8EWbYgmRtoaGlroi78jLYPoyMnCyaB7zEvAZsPaqaZqz3Q4jkuNKAWCaZjNgPYg0lvp5ZuyDsktuhlblyLlA4n0meDy4ozmAM2snp9UPAXf4fAFHT3IUIknk9cTvBdDkdpA8MhmW9qDP57NlFrFwVsYLgPr6mdVg7R/p7PDnPeAwlJ5/DaikzM5oYg80InzH9OHi+rp0uvFohPsCgcBMu3IJkQrDaDoCoEVu58g7BL8O7zluxxB7lukCQPN6R/4EIJBqB94Fn0DJaRcDWkG+9swKlzfU41qjEVrq+ytMsBJ4wDTNCjtzCaHGOs7tBPmKieX3NgdkdBKgYfivI+CoVNt7D1qCklO+7NrGPuK/zp5Si0qPB18LhhHnlLYNambW7gbwacDuk4rFRyn+9Lkgry27bNtq9Mm/werZmrHrEWkNSO1nV+wRTXc7gdizjBUAptl0HJhTngHuXXgUSk7+ktz8s8gnJ9ZAB3BZMAwrhS9SAk4wjMDVkUjwZvvTiQ/j3f8wUNk4t2N8wOiLTwAZLACYeYd8mziFd7idQOxZRsbR/X7/ZDDfhRRX13gPWiI3/yx17MQaXO9rTLk9AdcHGgMH2hhJiKQQ4WW3M+Qt4hfcjiD2LBMFAMGi3wOoTaWxd/4hMuyf5c6YMhmXNdSn2txjEf7Q0tIy3s5MQuyJZcXvYWC72znyUAzgu9wOIfbM8QLA9DVdwkBKy750Yy+UnHaR3PxzwFfq63D2lJRqPIDgHx21fmpvIiE+WjQa7SWiLwGQw6psxOD/C4fD7W7nEHvmaAHg9/sDIL4llbZazWSUfuFqwGvLEbUiA67xTccxNakdwETgc0yz6VibIwnxkcLh9vtBdAqAbW5nyQMDDP5KJBL6gdtBRHKcnARIzPRLpLC7FpWUofS8a0Dj8vlo8/yjEeG7ARNtQ0MIDg6pd8B8R0tLy8x169bJBCKRMeFw+wOmaT7FTKcS04FEyL4ZklnMAoaIsdJC/N5oNPqO23lE8hwrAAwj8AUwDlVtR5qGkrOugDalwYlYwmFlmoY7W5rwqVWt2JlIqDZviI8mbgbwFQeiCfGhwuFwH4Bf7folREFw5BVAIBCYRMD3UmlbdNTp8Mzcz+5IIoOMkhLc7DdSasvAhYbR/DGbIwkhhHgfRwqARIJuBKB8cozumwHvESc5kEhk2rE11fjc1JQmBWoarJ9ADmQTQghH2V4AGIYxh8BfUG5YVILSsy4DyRa/eePqxumYXV6u3I6BBaYZOMOBSEIIIXax/W5LpP8YgK7aruTEL4JqptgdR7jIQ4RbAwY8qSzjZNxaV1cnpz0JIYRDbC0ADCNwZCoT/zyzD4B3wRF2RhFZYkZZGc6vm5pK0/rS4vKL7M4jhBBijK0FAAHfUW5UPh4ln5Hv+Xx2cX0dzFL148EZ/HXZIVAIIZxhWwFgGIHjARyg2q74uLNkvX+eK9Y0fM9vpnJ88MT4qHWpE5mEEKLQ2VYAEHCtahu9sRlFMvRfEPYZPw6nTp6k3I7BV8gogBBC2M+WAsDf6D8UwHylRkQoPuk8gGTWf6G4rGEaynTlP++qWCxxnhN5hBCikNly92XSvqraxjvvIOjTm+y4vMgRk7xenDMlhZUejMvnz5/vtT+REEIUrrQLAMNoaQHxUWpX1VF0zJnpXlrkoPPrpqDSo7xKtL6np/8UJ/IIIUShSrsAICQuUe3H+7FDoU2qS/fSIgdN8Hhw3jT1P3tilvMBhBDCRmkdBlRbO6ccGFR7lNc0FMl2vwXtnNrJuHvTO9gyGku6zdjugObscDi82sFookD5fIFDdMKFDBwIZMVpgAmAIsT4286h0ts3b1414HYgkX/SKgDKy4dOBaNCpY1330XQJqa0MYzIE6W6jnOnTsGt6zuV2jHTFwHIskBhJ800ArcBuIjdTvIBPJEJ+5eXDVwQCASOCwaDrW4nEvklrVcAzKw8O9t76KfTuaTIE6dMnowSxXMfCHSWz+dT31FIiA9h+gI3AsjyncjIZ1l43O/3T3Y7icgvKRcAgUDAT2PDZUnTzb2hT/OlekmRRyo9Oo6rqVZtVqVp3mOdyCMKj9/vD4DwNbdzJIUxDRZd43YMkV9SLgAsC6eqtvEuOibVy4k8dFYKxwUTs/LPnRC7ZWmnIc3XoJnEwBlI4aA1IT5M6q8AWK0AoHEV8M5VGjAQeW5WeTn2Ga8234qB48YmnwqRHgs8y+0MiqpN05zmdgiRP1Kqfk3TbAZjnkob7/xDAE2KV/G/zqydjJU7dqo0KRtXOnDcZuAvTmXKd8P3/BSkZ9+DL3dvzuj1NEDLvol/H82yimTrVGGbFL8FtONUW3gPOCy1S4m8tqS6Gtfo6zGUSCTdhomOgxQAKYuvXu52hKzAhLeRWxVAX01N+YZo1O0YIl+kVk0yH610kamN0Op8KV1K5LcyXcPHK5RPgzwSNh9lLQqPFsdfAFhu50gWAX9dsWJF8ptnCLEHyl+iY+9faZFKG3n3Lz7Kkuoq1SaTTdNUO3xKiPcJdgTXALjD7RxJ2kY6rnc7hMgvygVAWdngYQCKVdp45ixQvYwoIIdVVcJDpNSGWF/iUBxRQKqqKy4H0b1u59iDzRbTccFgsMvtICK/KBcAGuhglc/TxFoZ/hcfqcLjwYIJ45XaMKxDHIojCsiKFSti4XD7GSA6CeB/ARh0O9MuFoAgiL/n8WqzotF2mbghbKc8CdACL1R5VvM0Ky0WEAXqyJpqPN/Xr9CCFixevNizbNmyuGOhckdBvhdm5lG7ugqH2x8A8AAAtLS0jB8aGnJ1mYRpmjvkZ1s4TemHvL6+vpSAfZUu0CIFgNizheoTAcd1dnbOBbDCgTi5pguA+q5KuY3j8bgjQ+Lr1q3b4US/Kjo6OtyOIAqA0iuAoqKi+VB5/08a9KbZqplEAWosKUGVR/GhK6EtdCZNbmHwY25nyDQGXu7o6OhxO4cQuUypACBLV3r612rrQWXZcLKmyHYEKO8KaJHaaFS+0nW6DUAh3QyZWWbEC5EupQKAieeofF5vbFJLIwqaagFAxDK8BCAYDG4FaacieyawOYtxXTQafNztGELkOsVVAKRUAGi+FrXuRUHbd5ziaBFj78WLF2ffnrYuCIfb/mUxLSTg325ncQoDYQZODUeD33E7ixD5QOXLU4fi4Rn6NEMxjihkc8aPgw4g+U2BUdIV7moGsMapTLkkGm1/A8Bin2+Gjyg+G0CJ25nsoFkcJ1A0uD74BpBjm/cKkcWSLgAMw6gHUJp0z6RBq52eSiZRoMo0Db7SEoSGhpNvpKEJUgD8j2h0bRRA1OUYQogsl/QrAJ11pcd5qp4MKlbaMFAI1JeoPbRaIJ8TOYQQIt8lXQAwuFGlY31yvXoaUfCmqxaNmiXvmYQQIgXJFwAaKX3RajWT1NOIgjetuEjp88RqP5dCCCHGJF0AEKNOpWOqlAJAqJuu+AqAgWkORRFCiLyW/AgA0USljqulABDqGpTnjXCNI0GEECLPJb8MkBW/aMcp7+1e8EJDQ7h38xa3Y7hqR0JhESAAgKQAEEKIFCRdABAwSWUBrlamdryrAF7t34FX+10/hyTXjA8EAsXBYHDE7SBCCJFLVHYCrFDqWc4AEBmSSCQq3c4ghBC5JukCwFI5BRAAFSe/Z5AQ6SAi2XBCCCEUJb8KAFBan0Ver3oaIVJARGprB4UQQii9AlB7ytLljBaRGTICIIQQ6lQKALU7uqZ40GA+kt+DzIipjU4JIYRQKwDiSj1bllqSPETlshQyEyzdUvvZFEIIoVQAjCr1nJDvZN2YAXhkLkQGyBJAIYRQ5FgBwHEpAGhcBYoOPNLtGHmPmaUAEEIIRQrv9XkEoOQ/HhsBIHsBFC35DOJvvgirv8ftKHnLskrURqfy3Pz58719fX3TmTkv9kegGA3tGClbv3nzqgG3swiRT1Qm9vUDmJrsh62dO6BXyC6tNG4Cis+4FEO/+A7AMi/CCbFYX5/bGbKBYRi1RNp1Pd19pwOoUCrYsxjrQHnZYMw0/E9oFn07uD74utuZhMgHCmcB0Hal75PBfvU0ecozYx6KDv0kRp9+KKX28/auxgx/XjzM7dHISBwPPtGh0mRo48aNg07lyRWBQGCmZeFxcN6ejugF6FhLwydMs+lz4XD7PW4HEiLXJX8WAGGbylkA1s5+6CkEylfFx34W8bbVsLpCym03bR3Cr29ZiMqK/F/t1h7tVy0AtjuVJVfU1dWVWQk8isI4GrkIzL8LNAbWyUiAEOlJ/jhgVvui5f5u9TT5TPeg9JwrgCK18+4BYPPWIVz1gxUOhMo+m7YMqTbZ5kSOXFJSUvZlAIbbOTKoyCK6we0QQuQ6lVUA76h0bG3frBgl/2mTpqHkpPNSavvkcxvxp4fDNifKPu9sUysAWPHnMi8xfdrtCBlH/ImZM2fKLGMh0pD8CABxRKVj3l7Y59p/GO8Bh8O7z8KU2t7881Voj+b33IquTWoTvYk46kyS3EFg0+0MLvCO7BiZ7nYIIXKZwioALQokPwtARgA+XPGpFyKxvh1Wt1qRNDySwGU3vIIH7jgUxUX5OcMitH6H0ufJ0pQK03zEgPp7pTzAXrbtyFG/3z8LFn2JQQcwWJYvKSCgH4zXoVm/DYfDz7udRyRPYRJgIgpO/o2BtWXD2G6AcijQB1BpOUo+exmGfvYtsOKWyWtDfbj1zrdw7SVzHUrnrmCHWgFgKY5MCfF+pi/wbbbwbQA6wHmyeDLDCPPA2rl+I/CryuqKi1asWBFzO5LYs6Tv6KWlpesBJP+HaiWQeKcrlUwFQTf3RtGRp6bU9g8PBvH0S/n36jueYKzv2qnURrcQdCiOKAB+X9PXQbgekEVLdmDgvJ6e3p+6nUMkJ+kCoLW1dRTAOpXOrU3rlQMVEu+Rp0I391Zuxwx847uvYcv2YQdSuWddqA+xuNKISDxO8bedyiPym9/vb2Di693OkXeYzvf5AgvcjiH2TO28WsYqlY8nOtqUui80pGko+exloNJy5bbdvSP42i2vwrJUdmfIbm+8rbZ0lID2aDSaX1WQyJyEdjoKdP6Ew0jT+HNuhxB7pvqCfhWAM5L9sBVRGjAoSFr1ZBSfegGG7/6BctvnX9uCX/+1Hed9ptmBZJn35lq1AsCCWkEqxuxVXgY9C990h4aHMZRIZOx6DGtevmyXnHWY9nE7gtgzpQLAAt5QGTJIbAiDR0ZAxcWKsQqLd5+PI7F2JWLLn1Ju+8NfteLAfSZhVnOVA8ky6/W3FEcACG86FCWv/XHvvVDpyb5X3iesasVbAxk874co/7fWdI/83uYApVcAmma9DCD5l7SWhcT6taqZClLxiedDm6S+k2ssbuGyG17F4FBuH7+8ccsgIp2KKwAsvOhQHFEIGO1uR8hXBMj73xygVACEw+E+gN5SaZNYu1ItUYGi4uKxrYJTWDYZ6dyB6297w4FUmfPiiq2qTUbj8eFXnMgiCgPp/DeobG4ikmYBf3M7g9gztUmAAMD8gsrH429LAZAsrd6P4mM/m1Lbvz22Hv94utPmRJnzwmtqG0cxsKKrq0v54AAh3hUKhVYA+LPbOfLQC5FI8H63Q4g9Uy8ANHpO5ePWpvXg3oI/ryVpRYd+Ep4Z81Jq+60frcSGzbl3Mm48wVi2XG1fAyJW+jkUYneGRwbPB/Ck2znyyJsWx0+Gyqti4RrlAsDjoSeh+IcbX7Vc9TKFizQUn3EpaFyFctP+nTFcfsOrSCRya1TzxRVb0L9TbeMwIjzuUBxRQDZu3Dg4vbH+GBAuBLDa7Ty5ioEwg781PDJ4UDQazb9dyvKU8gvntra2baYReBXAAcm2ia18Ht6Dj1W9VMHSJlSh5IxLMPSrG8d2/VGw4q1t+Nkf3saln1PfYMgtTzy/QbXJzpKSEtlzXNhi2bJlcQB3ALijtnZOeUXxcK3bmXJJ3BPfHgmH+9zOIdSltlE/YSk4+QIgEV0Lq3sLtOrJKV2uEHn2ng/vomMRe/bvym1/9vu1WDBvEg6YN8mBZPaKxS0s/bdaAcDAU7t2phTCVps3rxrYDOT/udtCIJU5AAAA6x9KH2dGfKXS3EEBoOT4s6HV+ZTbWRbja7e8pjys7oanX3oHPX1q93IN/E+H4gghRMFIqQAIh8OvghFSaTP64uPKw9kFz1uE0rOvBBWpb6S0YfMgrv7eCgdC2euBpVHVJnFoeMiBKEIIUVBSHAEAoLHSMg/e/g4SQaUtBAQAbUoDik84N6W2S5/dgL8+FrU3kI02bxvGspeV5ws9HQqFtjiRRwghCknKBQAR7lNtE3txaaqXK2jehUvgmZPa4Vrfue0NhDvVjtjNlD89HEJcccUCQ/3nTgghxAelXACMbaLBSqf9xN58CVa3PLylouQzF4EqapTbDQ4lcNkNy1WP2XXcyGgC9z4aUW02nEiMPuBEHiGEKDSpvwIAwMBdSg0sC7FnH03nkgWLysej9LOXAaT+R9ba1osf/LLVgVSpe+SpTmzvHVFtdn9HR0ePE3mEEKLQpFUA6DrdDUBpCvfoS/8CD2bnkHS205tmo+jwE1Nq++u/tuG5V9W223VKIsG480/qR0VrrFhwCiGE+FBpFQDBYHArQXFG9sgQYs88nM5lC1rxMWdAN1qU2zEDV970KrZ2DzuQSs3fn+lCtEuxCGSEgtHgv51JJIQQhSetAgAALNDtqm1G/v0oeGd/upcuTJqG0s9eDiopU266vXcEV333dVdXYyYSjJ//MaUjon8GOblNCCFsk3YBEIm0PwvQq0qNRocx+pTM5UoV1UxB8clfSqntsuWb8PsHlLZwsNXflkYRjCoXfz2l5cUy/C+EEDZKuwAAAGLrh6ptRp/9O6ytG+24fEHy7ncIvPsdklLbW+9chTXBzG/dPTgUx49/s0a9IePO1tZWmTgihBA2Su0sgPdp8DXc37G+KwLASLpRIo6RR3+P0nOvsiNCQSo++UuIR9eCt6lN7huNWbj8xlfw0J2HorTElh+BpPzy3jZs2a48B2EkltB/5kQeId5DM4ymj2uMBaxxtdthAIwQc0j36v9sa2uT89SFI2z59l+2bFncMAI3E/ArlXbxVS8j0b4KetMcO2IUHCopQ+lZV2LwJ1cDVkKpbTDaj5t+vgo3XrGvQ+n+V7RrJ355T1sqTe/q7FwnQ0XCMX6/fz5b2m8AnsOErJlpwiDEY9aQ6Qt8NxwN3gDFY9iF2BNbXgEAQHV1xd2q5wMAwPB9vwDH5GC3VOmNzSg++vSU2t7zSARPPKd8FG9KrvvJGxgZVStSAAzF4vrNTuQRAgB8vsACtuhZgLP1KaQUhOsMI/Bbt4OI/GNbAbBixYoYEX9HtZ21dQNGl/7FrhgFqeiIE6EHZqXU9urvr8A7W4dsTvS/HnmqM7U9CBh3ytO/cEogECjWiO8BoL6kJsMIONs0A2e6nUPkF9sKAAAIRUJ/AkN5y7nRZx6E1enezPScRxpKz7ocKB+v3LS3P4YrbnoVluXMuOfmbcO4/icrU2naTzrfanceId5lWTgZIJ/LMZLH+KrbEUR+sbUAAJBgwhXKrSwLQ3/8EXhUeWtYsQtV1KD0Mxel1Hb5G1tx55/Vd+bbE+axEYbe/phyW2K6SU79E45iHOp2BEXzpk+fXuV2CJE/bJ8CHokEnzCNwKMAjldpZ23egJGHf4OSUy6wO1LB8MxZAO/CJYi98Lhy25/8dg0O2ncy5u1t3wToPz4cwr+XKx/3CwBB8vBPbAsi/sfagQGM8+hux/iAYcWJrGkj1GTLhL9keTyeiQDkPAxhC2fWgJF1JVhbAqBIpVnshcfhadkn5aNvBVB8wrlIhNbAeqdTqV08wbjsxlfw97sOx7gyb9o5Wtt6cfPtq1JqqzG+GgwGZTjIIWeuSWknxrzDTFsotyoABiCjYsI2dr8CAACEw+F2EFJ6fzv859tgbZF5X6miomKUnn0l4FWqvQAAnRsHcO3/eyPtDDsGYrj4upcxGlNftUTAI8FoUA6LEBnAT7qdQNEr4XA48zt4ibzl2C4wmoabOYFTGNhLpR0PD2LoN7eg/IrvA0UlTsXLa1qdDyXHn4PhB5S2ZQAAPPRkBxZ9rBaf+sT0lK6dSDCuuPEVdGxu65WCAAAgAElEQVQcSKV5P+lIbSKDEIoaG+sf6lzf9bbqd5RbGMiLJbEzZ84s2rlz1O+BNQOaFmDiGliYwIRyAjQQDwDUC6CPGe1Aoo2Z26LRqPsnmeUZcrJzv9+/cGyNrfpIg2f2ASg99xsAOTJIkf+YMfSrGxFfs0K56bgyLx6963BMrytXbnvLz1fjrvtS2vAHIFwYDgfvSK1x4TKNwHYA2bB7XUaRxvuFQiH1H/D38Pv9s3Z9R2X35DrCj8Ph4OVux0iRHvAFFiWIDyNohwJ8AADV94wJgF4HWc9YFj3t8WCZvCZMn6MFAACYpv/HYLo0lbbeQ45Dyae/aHekgsE7+zDwvcvA/epzhubtXY2//HQxPHryPyL3/TOKq7+X2vcxA8sikeDhkN3OlEkBkB7TNJtgaXeCcJgduezEwHYiXJOLhbFpmrOJtXMYfAZAU23uvhvAvRbjD9Fo8GWb+y4YjhcAPp+vRCPPqwBS2qmm5NNfhPeQ42xOVTjia9/A0C+uRypnAF9wZgu+el5yf2xPvbgJF1zzEhKJlCZV9ZDGc0OhkNrMRQGgcAsAzcL84Prg63b15/M1z9DBCxhca1efqSLiwQRTGxD/d64Nffsb/Yeypn0T4MMzdMnlDNwUiQT/jqzZyDk3OF4AAGOVIFh7BYD6S33SUHL6xfB+LOuK85wx8vDvMPrMQ8rtNI3whx8uwoJ9Jn3k515bvQ3nfPV5DI+ktoyLgVMjkeBfU2osYBqBdgABt3NkmsUeIxpdG3U7hxhjmub+sLQfg3CQSxHeJIsvD60PPePS9XNORhYD9/T0bKmuquoH6Gj11oxE66ug2nroU1KbmFboPE2zEH97hfKrAGbghde34KQljSgp2f2Pyqq13Tj3Gy9gYCiearxfRyJB2fEvDVXVNQchxRG2HLY5Em37NuSJz3XTp0+vqqma9COA7gTBzS/pKSA6u6qquqmicsKLvb29coT4HmRsN5Ce3p5XqiqrWkA0W7kxM+KrlkOfMh3alAYH0uU5TRsrAl55CkioPaUPDMYR2bATxx32wd/3N9Z043Nfex79O9V3+gMAEF4fjQ2f0t/fn3L1IIDq6qoeMJ3jdo5MItBPenq7n3I7R6EzjOZFuqb9C4TDkaER5T0gAHNA2uerq2vW9PR0pzgjuTBkdDuwouKGpUXe2PEA1N+xMSOx6iVQdS30aT7bs+U7Kp8AmlCN+FuvKLcNd+zApKoSzJ7x34nSr7dux+e//gJ2DKR282dgO7PniI6OsJx1nqaenp5IVVV1A4DMnO3svrdKy4o/v3XrVjlG1D1kGIH/I/DvAFS6Heb9aOyAp9Orq6rHm37jmU2bNsnk4t3IaAEwMLA5VlVd+S+AzkIq8wGYEX/rFdC4CdCnN9kfMM/p9SZ4c6fyLoEA8NLKrViyqA7VlcV4+qV3cP7/vZTOsH8CwInRaFvaM7jFGNNvPDY8NFINYH9kx5OYU561OP7J9vb2breDFKr58+d7S0vK7ybgMji0mZxNCMBBw8Mj+xUV1T80MLA5xaHK/OXKF4Xf7z+MLXoMilsFv1fRYZ9C8fFnyz4BinhoAIPfvxxWt/qOojP8FTjzkyauu+2NVGf7j2UALo5Egren3IH4UD5f0zyN+CwAs5E3KwN4EEztTHhIZnq7q7Z2TnlZ2eDfCDjK7SyKlheNeo5du2HtdreDZBPXnhT8Pv85TPTbdDJ45y1E8ZmXglLY9raQJcJrMPSzb4EtV0bFfhSOBK9048JCiNQFAoFiy8JjOXiK4rveBFmHyHbK/+XakWA9vT1vVlVXE4DFqfZhvdOJ+Nsr4GnZB1SmvmtdodKqJoGZkQi+lelL3x+OBM+HPMEJkWv0yorqewAc43aQNEwh0IEVlRPu7e3tlYnHcLEAAICenu5llVU1NQQckGof3N+D+GvPQJtmQJto92ZT+ctj7o1E+2pwz9ZMXfJJTcfJ3d3d8hdPiBxjGP4fE+jzdvbpLy3BQZUVWFJdheNranDsxGosqanGwZWVmDNuHCYXeUEgbI/Z+urep5HW3NPb/Tc7O81V2TBZiEwj8CsAX0ivFw1Fh52A4mPOBHTHzjjKK1b3Fgx+/3LwUEoH96h4YWCwbMnmzascv5AQwl6GETiZgLQ36iIA+08Yj09PmojFlZWYXJTccQA98Tie7e3DQ1u34YW+fiRS2NX0g1n4klAk9NO0O8px2VAAAIBu+gK/B+GMdDvSGvwoPetKaJPr7MiV92Irn8fw3T9w8hKvgawj5L2bELknEAj4rQRWAKhItQ+dCMfVVOOC+jo0lZamladzeAS/2LgRf9uyDbH0CoER0nihHWdJ5DJXXwG8B/f0dj9cVVndAMI+aXXU34P4y08Cuge6rwWgbKlxspM+dTq4ZyusDREHeqfnQdZRcvMXIidRZWX13wDMSLWDeePK8YuWJpw1tRY1XtUDAD+owuPBYVVVOKamBuGhIXSOpHwgoAdMB5l+465C3iMgWwoAYKwIeKSqqnoigI+l1ZOVQKLtTcRbX4WnIQCqyJPVUA7xtMxF/I2XwIM77Oz2yYHBsuO7utba2qkQIjNMM3AmGCmt2NGJ8JWGafh+wERtsf2rtKq8Hnxq0kRUejx4sa8/1SNEJw8NDff19va8ZG+63JFNBQAAoKe3+5/VVTVeAAen2xf39yD28r+Avu3Qfc2gIvW9h/Le6DBGnnoAibUrlbcJ/gj3azpO7ux8e8iuDoUQmRMIBCawhUcBjFNtW6rruKMlgNMmT4bm4AgsAZg3fhwOqqzAk93dGLbUXwkQ6MBx4yfd3d+/vSAfVLKuAACAnt7upyurqjfQ2JKTNHf6YSS6Qoi9+ARAGrR6EySTBMGWhdjLT2LoN7cisWaFnTf/H4UjwfNltr8QuauysvpyAJ9SbVeu67h77xYcOGGCA6l2b2pREQ6vqsLS7h4Mqu9tUqzrlqenp2epE9myXVa/IDeMwJG7Zp/a9tNEE6pQfMTJ8B50JOBJ/51UrmHLQuKNFzDyxF9hvdNhZ9cJBi6VHf6EyG11dXVlJcVlEQCTVdoVEeE3Gb75v9eagUGc3vo2dqo/zAySxkYoFFLfHjXHZeUIwLt6e7tDNROrH2XGEQBqbOl0ZBjxt19H7JWnAIuhTZ0OKoRCIB7D6PKnMPL7HyL20hPgnfbNy2NgO4ATI5HgvbZ1KoRwxcSJk79EoFNU233H9OHoGvfmW00q8qKptBT/2K58TISXmGI9vd1PO5Erm2X1CMC7TNOsYNbuJuAEu/umkjJ4F3wC3oVLoE3Kv6WD3NuN2PJ/YfSlpeBeB85PIbxuWZ6TotG1Ufs7F0JkmmkEVgKYp9Lm2Ik1uK3J71AiNTdE1+N3mzYrtSFgYygSnI6xg8oKRk4UALuQYQSuJuB6APa/xCeC7p8J70FHwjN7QW6fL2BZiK95DbGXnkDi7ded3PP/16Ox4a90dXXJZD8h8oBhGHMI+psqbSo8Hjw5b7Yty/zsMJiwcOQbq7BpVO20aAaWRCLBJxyKlZVyaTYcRyLBm32+wNMa8EcQ7C03d+2Nnwi+BRSVwDvrY/DssxCevfbNjbkCVgLxttWIr3oJ8dXLwTt6nbxaDwNfikSCae8OJoTIJtpnVVt8ZVpd1tz8AaBM13BVYwMubQ+pNj0TQEEVALk0AvAfLS0t42Ox+G1g+pzT16LiYuiBOfDsPR/6jH2h1SjNi3EU93YjHlqNxNqViLe+Bh7c6fw1gWWaxmeHQqFOxy8mhMgo0wi8AWBusp+f6PXi3/vORYmWXceyW8w4+s3VCA4NqzTbHI4Ep6KADivLyQLgXabZdCyY7wDQkKlrUuVE6OZe0I0Z0H0t0GobQEXFzl84EUfinU5YXREkQq2Ih1rB299x/rr/1Q/C1eFw8E4g1X03hBDZqrm5eWI8Zm2GwtLrS+un4ZKGaQ6mSt29m7fgm+GoUhtNx6xgMNjqTKLsk9MFALBrNGA0cQuAC5D2ngHqSNNANVOh1TVCmzQFWnUtqHoyqGoStPLxQNl4UJLVMQ/uBPdtB/duh9XfC+7ZAmtzJxKbOmBt2QA49y7/IxHwCOm4KBgMdrkSQAjhONNsOgnMSZ+SRwCe2WcuGkoy8ACUgh2JBA54bSVGFL43C+2QoFyaA7Bb69at2wHgYsNo/r0G6ycMLMjk9dmywFs3wNq64UM/Q2XjgLLysX/2loydVhiPgeMjwOjo2D+PDAOJrNs7J6gxvhqMBh92O4gQwlnM1lxSeCacVV6etTd/ABiv6/h4xQQ81ZP8fCgGJf36Ix/kfAHwrkik7RUAB+06uvL7ABrdzvQuHtwJ7Ho/nyMvlwZA+IFlxW8NR6NKL9GEELlJA81Q+X46qNKdDX9UHDhBrQAAqMWxMFkou2ZupI8jkeBfh0cG9yambwDY5nagHDMExv8jjc1wOHhdVG7+QhQMBppVPr/POOVjAjJu3wnjFVuwFAC5buPGjYOhaPv3vEW6SaBrADi6Ji4PjAK4PRbXA+Fo8IpC3BJTCAGl2XxmaalTOWxjliofADcpEAhk73sNm+VlAfCudevW7QhF2m/0FunTQbgSgK2b3+eBXjBujcV1IxwJXtzZuW6j24GEEK5Relyud+CYX7uN13VUetR2vNc0TXXYIGfldQHwrnXr1u0Ih4M/mt5Y7wfRmQS87HYml7WBcXlpWXFDOBq8Wm78QhS2mTNnFgFI+snXS4TiLFv7/2HGe9Smuo2MUMEUAHkzCTAZy5YtiwP4M4A/m6Y5m5m+SKCzAFS5HC0ThgHcrzHuCkaD/0bOzEcUQjhtaGioVOV5MNs2/vkoqoWK15socyhK1imoAuC9wuHwagCX+ny+b2ia91hiPpWB4wDk0x9+HMDTDNyXSIw+0NHR0eN2ICFE9hkdHR0t8ib/vnzIpT1JUjGseDxwPO4ZcChK1inYAuBdu2a63w/g/traOeXjSgeOY6LjACwBMMnddCnZycBTGvifuld/oK2tTVZCCCE+UldX17BpBBhJbg4XZ8ZQIoFSPatPlAcA7EioFSslMexwKErWKfgC4L02b141sBn4C8Z+aaZpzifWj2JYBwO0AEA2rnsZZWAFET9HhMdLSkqeb21tVTsGSwhR6Bhjy6aTfujpHBlBc1l2D5j2xhPoi6ttsKZX6jvw4fu65RUpAD6cFQ6HXwXwKgAsXrzY09nZORcJbaFF2JeIZ4MxEwoTZ2wQJ6AdwGomvMFML8RiQ6/KcbzpCwQCxZZlNQN6MzO3ADSFmMuJMB5AsQUMAdSnAf1MHAG0NiDeFg6HZWWJyAsMdJFCARAaGs76AiA8rPrVyJsK6QFKCoAk7ZpAuGLXLwBjRUEksqHJS9xsgXzQLIOYDAbqMPYXqQZqowZDALYD2M7AJmJECBS1iCO6hVCc4mtkcx7bUKAxsMAifIIIh1kJLAC0YoB3jYEyQP+dKfnuv+Nd/2nsPCQNphF4B8zPMOEZXafH5LwEkauIOQKifZL9/IqdO3F0TbWTkdK2ol/thFQGrXMoSlaSAiANu4qCt3f92q1AIFCsadp4DGMCAMQ98XIiKkoktESRRf0AENNjAyMjIzs2btw4mJnkhat5erMZ91hng3G2BRhA2sshpoDodAJOtxKwTCPwFAN/GBkZvF/+PEVuoVUATkz20y/19mfRhuu792Jfn2ILanMkSJaSAsBhwWBwBMAIZFtiVxlG81wN1v/FYZ0Mdmz/Cw3AJwj4RElx2Q8NI/BjXcfPgsFgv0PXE8I2GvCGynS5tYODCA4NI6C+215GdMfjeLFP7a8eMVY6FCcr5c5iTiFS4PPN8Jlm0wMEayUDpyJzP/OTCLjJSmC932j62vz5870Zuq4QKRmOFz+HsXdbSXtg61aH0qTvka3bEWfF8T0t8bQzabJT8mc/CpFDZs6cWTQ4OPJVAr6JbNjbgdHKRBdGIu3Puh1FiA9jGoHXAMxP9vMVHg+e3XcuxmXZcsA4Mw5f+Sa6RpTm83WFI8EGpzJlIxkBEHknEAj4hwZHXiTgJmTDzR8ACDMJvMw0/d9dvHixvHoT2YnxqMrH++Jx3L1ps1NpUnb/1m2qN38Q8JhDcbKWFAAirxhG4GQrgRVQeIrJIALT1zuiXf/2+/0F9aQhcoMF7S+qbe7cuBEbR0aciJOSvngcP1jfqdzOAv3RgThZTQoAkTf8RtPXCLgPQIXbWT4S4SBY9LJpmrPdjiLEe0WjbWsBvKLSZjBh4ZvhaNYcLnJDtAPdipv/AIhEIu3POZEnm0kBIPIB+Y2m7zP4e8iReS0M1IG1Zw2jeZHbWYR4LwLfrtrm2d4+/HLDJifiKLl/yzY8uFV9wRWDf40CPCBNCgCR80wj8AMGf9XtHCmoJFiP+XyBBW4HEeJdpNNfCFA+IvyHnV1Y2u3eeWPL+/pxTSSaStM+5oRy0ZMPpAAQOc30Bb4B4Aq3c6ShnAh/b2xs2svtIEIAY3uXWOBbVNslmHF5WxDLenudiPWRVu7YiS+ta8dICqcUEnB7NBrNfOgskBPDpULsjmk2nQ7mP8HGn2Nf/TjMbqlCoHECpkwqRVmpjuIiHcPDcXT3j6Jz4wDa1+/A66u3Y+dgzK7LAkCHpmO/YDCYvQurRcEIBALFiQTWEGCqtvUQ4RbThxMnZ+Yw1ad6enFpewhDisf+AgAD24tHPS1rN6zd7kC0rCcFgMhJhtHSQki8BhtOaJzVXIUTlzTiyEVTMXVycqsGEwnGqrXdeOSpLjz6VAd6+tI/P4SBpZFI8FgobsYihBMMI3A8AY+k2v702km4xteIYs2ZgeYEgP/X0YVfbNwES3XDn10YfH4kEvqVvclyhxQAIuf4fL4SjTwvA5ibTj8HHzAFF322BfvNnphWnpHRBO77ZxS/+HMbNm1Jc/t/wtXhcPDW9DoRIn0+n2+KRp63AVSm3EdJCa41GnFwpb0Lc17fuRPfDkfx9kBaf9+WhyPBg1DABbcUACLnGIb/BgJ9K9X2DXXluO7SuVh8wFQ7Y2FoOI7b/7AWd/2lHbF4yt8powmL5q1f3/6hB0wJ4TSfb4ZPo/iTAAJ29LewYgIumlaHAyompNXP6oEB3N61Ef/q7kl3yv5Oi7X9dy17LFhSAIicYppmM1hbBaA4lfYnHNGAG67cF+Wlzm3Gt2ptNy65fjk6N6X4dMJ4OhwNHm5vKiGS09jYtJeu8RMA6u3u219aghMmTcShlZWYUVYKjfZ8CwoODuHffX14aOs2rEnvif+/CJ8Nh4N/sqez3CUFgMgpphF4HMCRqu2IgG98aTbOO63ZgVQf1Nsfw/n/9yJWvJXaIZDEfFooGlLelU2IdAQaA/taGpYCcHwGX6VHx4zychglxZjo9aJc16ERYSCeQHc8jvDQENYNDmFbzNbJtgDjjnA0eKG9neYmKQBEzvD7/QvZoudV2xEBN39tPk49xudAqg83PJLAl7/1Ep57NaW90teGI8GZKOD3kyKzDKN5EcF6FNm+k2YaGHg4EgmehLE5hAVP9gEQOYOZvplKu6svmJPxmz8AlBTr+Pl3DsTcvapSaT7DMAIn2Z1JiN3x+/xHEaylyOObP8DPxWLDp0Nu/v8hBYDICYbRPBeMo1TbnXx0I75wapMTkZJSVqrjzhsPwsSqEuW2RLjKgUhC/A/DCJzCRA8jW07OdAADS0vLSo7p6uoacjtLNpECQOQEosTnofjKyj99PK69ZB+HEiVvck0JfvjN/ZHEfKf/xdjX52ua50goIQAYRuALBNwDoMjtLA76Y3V1xSdbW1t3uh0k20gBILLe4sWLPWA6TbXd9ZfPQ1mp7kQkZR/fbzJOOGK6cjuN+CwH4ggBw/BfTMAvAWTHXxL7xUG4PhwJnrNixQqbZxLmBykARNbr6NiwBECtSpujDp6GA/eZ7FCi1Fx1wWyUligvPzwD8vdU2Mw0A9cT6KdI72drPVl8IoDVNsWyU4dm4eBwOHgdZCLth5IvFpH1mC2lZX9EwEVnZ9/ZOpOqS/CZ43yqzab4fE1zHIgjChMZhv8nYHw7vW54HWm8KLQ+9KCmY38C3QRgxJaE6YkD+JG3SJ8VXB98ye0w2U4KAJH1CHSoyucXzJuMvQPZOZn53FOaoGlqkwE0jQ9zKI4oLLpp+n9DoEvS6YSBlaTh4FAo1AmMnR4YirR/y5PQ9gZw/9hHMo+Ax0njfcKR4JXr1q3b4UaGXCMFgMhqgUBgEoBZKm1OOkr9XXumTKstw8fmKp49wFAqgIR4v0AgUGwagb+A6XNpdvUCc/ywUCi05f3/oa2jLRyOBE9mJOaB+R6MPY07jQl4hKEdEIoEjwqFQm9l4Jp5QwoAkdU4xrOgMPtf1wlHfLzOwUTpO+qQaapN5BWASFlt7ZxyK4FHAKS7r8QTA4NlS6LRaO9HfSgSiawKR0NnxOJ6IxhXEeDEuRbtYFybsHR/KBI8IRJpe8WBa+Q95zZEF8IGTFqLyoji7JYqjC/3OpgofSlMTqyvq6sr27hxo00boYtC4fP5KjUa/DuAhWl2dX9pWfEZ4ciqpM+97uxctxHAdwF81+/3BzihHcvEh2rA/gyoVuk9AF4A4ymmxNORSGSVYnuxG1IAiOymcYvKG8V5e1c7l8Um/unjMWGcF/07k16ZpBUXj2sC8KaDsUSe8fv9k9mixwGkt5cE8e/C4dAXkcYOeqFQKAjgJ7t+obFxr6malggAlk9jmgriCgDFDBAIO5h5p8baNosQ1jRr7e5eOYj0SQEgshoxpqnMKPI3jHcsi12IAKNhHN58uyfpNpqVqIMUACJJjY17TeVE7EkQZqbZ1e3hcOgS2LyUbv36tzcB2ATgOTv7FWpkDoDIakwYp/L5aVNyYzfT+inlag0I6R2kLgqGaZrNuhZ7Oe2bP+E74UjwYsg6+rwlIwAiuzGNV5kDUF6WGz/S48rU5ilYRNk/tCFcFwgEZnICT6Twjv29mMFfj4RDP7AtmMhKufFtKQoYl6p8urgoN3Y1LS5Wy6kp/j6IwhNoDBxoJfAPACkdP7lLgoEvRSKhX9uVS2QvKQBEdmOMqBwBNDScGyd9Dg2pLZG2QLICQHyogC+w2CI8AiCdkaJRBs6KRIL32ZVLZDeZAyCyG7HSjW/HQG6c+dG/M+nVVAAAjVlOMhO75W/0f9oiLEV6N/9BYj5Bbv6FRQoAkd0YW1U+3rFhwKkkturYqJYzAfrIzVdEYfIb/rNZo/sAFKfRTR9DOyoUDS21K5fIDVIAiKzGhC6Vzwc7sn8L8ESCEVUsVDTNijgUR+Qov+H/CoN+h/Re5W7VLBwWibTJcrwCJAWAyGrEWljl86+t3uZUFNu81daLoWGlOQCJ0tLSqENxRA7yG03fYtBtUNgmeze6EhYdElwffN2uXCK3SAEgshrpltJZ46H1/diyfdipOLZ48XXlTc3Cra2tapMGRL4ivxH4AYNvSLOfoMWeRevXtzuxT7/IEVIAiKxGRKuhsAUpM/CPp5XeGmTc35/uVPo8A3KuuQAA3W8EfsHAlWn2s9ri+KJodG3UjlAid0kBILJaMBjsB0hpiPL+pVGH0qRvTXsv1ob6lNpo4BcciiNyxPz5872GEfgTA+el2dXy0Vjx4mg0+o4twUROkwJAZD/ip1U+/naoD8++stmpNGn5xb1tym2Y+BkHoogcUV9fX9qzvf8hAj6TVkeMp0vLio/o6mrttimayHFSAIisZ1l4SLXNT+9+G6xyilAGtEf78dgy5dcTq8PhcLsTeUT2CwQCE4q8JUtBfEw6/RDwiIX4sa2trbKfhPgPKQBE1otGg8sBKL04f711Ox58fL1DidQxA9f+eCUSCcWqhHG/M4lEtmtubp5oJfAUgIPT7OpPDY31J0Wj0eyeHSsyLjc2ThcFr6q6ugLAYpU2r63ehhOOmI5x5WoH7zjhnkfC+MNDSisaxxAmVlbVtPb2dmdPNSMc11zfPC1O1tMA5qbVEeOOcDR4XjQazY09skVGyQiAyAmahrsAKC2e7+kbxWU3vqL+1G2zNcE+3Hj7qlSbzyLwMtMI/MHn802xM5fIToFAwB/3Ws+BsXdaHTFuDUeDF0KO8xUfQkYARE7o7u7ur6qqbgYwR6Xdhs2D6Nw0gCMXTQOls2VKijZvHcLZVz6H3v60lvETgDlE2gVV1dVFdXVTX9y6das80eWhxsamvYjwNIDpaXXEuC4cDV5jTyqRr6QAEDmjonLi20R8ARRHrtaG+9C7I4aD968FZbAKeGfXzV913/+PUARgcTxmnVBZNbG1t3d7h10dC/cZRvPHiPgpAmrT6MYC04XhaPCHtgUTeUsKAJEzenu3b6uuqq4HMF+17Ztvd2N9104ceuAUeHTn33ytC/fhs1fYevN/r1oCf666qtpfUTnhpd7eXpnZneP8jf5DQXiMgMo0uomB6JxwpP23tgUTeU0KAJFTqmuqloPpYgDKM/vWRfrxzEubcOA+k1BVkc7haR/tr49FceG3l6Onb8Sxa2DstcBcIu286sqawbnz5qyIRqPyrjcHGUbgeBA9BKA8jW6GGTglEgnKqhGRNCkARC6h6sqa65HGsqit3SO4759RxBMW9tm72tbRgI6NA7jixtdw11/aEI9n7F5cAsLRfX07PlVVXflWT0+PvBbIIX6f/zQQ3Yv0jvMdYNCnIpHgY3blEoXBhWlRQqibOXNm0eDgyO/T3g3tPaZOLsP5pzfjlKMbUVqS+omq0a6d+MWf1+HBJzoQy9yNf3eYgT8Aia9HIpHs3ApR/Ifpa/oyiG9Hequxuhna0ZFI2yt25RKFQwoAkfVaWlrGx0atBwE+3In+y0s9OHrxNBy5aBo+Nncixiexb0C0ayeef20LHn2qEyve2pZtuw72EvjboUjo51A4SElkjukLfAOEW5DWdzBvIg1HhkKht2wLJgqKFAAiqxmGUUuk/xOMfTNxPV0nGA3j4W8Yh6m1ZSgv9aC0xIMdAzH09Y9i/e4d5eYAACAASURBVIYBhDqy/8jhXd4gjS8OhUJymFAWMX2Bm0G4Os1uIpqOTwSDwZAtoURBkgJAZK1AIOC3ElgKIOB2FmfxOhA9BsZFSGFy4546B/HdRPhGKBTaYnPfQo1m+gI/A+GCdDoh4G09pn2irattg13BRGGSnQBFVvL7/bMsC/9G3t/8EfTE9MPD4eDlIGsWgCds7p/A9Dm2aJ3pa7oUMvHXLbpp+n+d7s0fhNdJxyFy8xd2kBEAkXX8fv9hbNGDACa4ncVhQU3HocFg8H+OCDTNpjOI+fsM1Nl9QQZWamOvBV60u2+xez6fr0Qnz18Y+GSaXT2r6Tg+GAz22xJMFDx5GhBZxe/zf4pBDyC9NdG54AXSeEkoFNr0/v/Q09O9uqi4/hdFRbEYgINg499TAqaC6dzqqmp/dU3VCz09PY7sVCTG1NbOKS8uSjwMIK3jfEF4bHhk8IT169fLpk/CNlIAiKxhGIGLQPQ7pPcenAnYBGC8PansR8CvqqorTm1tbd3xYZ8ZGNgc6+npXlZdU/UQMc0E4LM3AuaC6YuVVdU7e3u7XweQXesY8kB9/czq0pLhJ5Dmcb4E3FdaVvyZcDicEzNPRe6QVwAiK+xaFnVrmt3EGfhyLDb8Z6+3+FYCXWJLOPv0EvgboUjol6oNDSNwPAG3A2hwINcbpPFF8lrAPoZh1BL0x5Hmcb4E/KGhsf7cZcuWKZ2EKUQypAAQbtP9RuAOBs5Ls58BsviU0PrQf3ZDM82m45j5JwSYafadPuYHmKwL09mgJxAITLDiuA6ErwBIfeei3WMwfqt5cFUwGNxqc98Fxeeb4dMo/iTSnMBKwA9DkeDXIKMzwiFSAAjX1NfXlxYVlfwZjE+l0w8D25np2Gi0ffn7/5vP5ysh0q8k0FeR3kErKSHgZWJcHYwGl9nVp2mas8Haz5Dm0PKH6AHhm+Fw8JeQTYSUNTY27aVr/ASA+nT6IdC3Q5H2G2yKJcRuSQEgXOHz+So10h8BaFGaXXVYrC2JRtvWftSHTNOsYKaLCXQxgClpXnNPmIBnLeBHkUjwEYeuQYYROJOA78OZ/58VFtNFuyuqxO4FGgP7WhqWApiURjdM4EtDkdBP7colxIeRAkBkXENDS53Xk1gKYHaaXb3liWlHqayJnj9/vrenp/94MH8ewBEAStLM8B8EbARwjwX9V5HIunV29ftRTNOsAOh6MF0E+18LWAB+6/FqV7W1tW2zue+8YhjNiwjWowAq0ugmQcxfCEVDd9uVS4iPIgWAyCjDaGkhJB4H0JheT/R8PDHyyY6Ojp5Ue6itnVM+rmTgSNbocIA+BvA8qK1AeAfAKgL9y0L88UgksirVLOkyDGMOQfuZDSMqu9MNpm+Go+2/xFhRIN7D3+g/mjX6G4CyNLoZAdEZ4XD7A3blEmJPpAAQGePzNR2gEf8dwMR0+iHgkZHY8GldXV1DNkUDMHbi4MBAzNSR8FlE0zSmGgaXYGyUoI9Avayhn5m6YjFva1dXa7ed17cB+Q3/WQz63v9v787j5KoKtI8/51ZVVy/ZAwlLk9RyE5AAAkFEwRk2JyAKOIMKigouyIgKM+o7vo6MDq64vCPMgKIsikZn3BXGQRSICKhAAggtpLu2bkLCknR3tl6r7nn/SBxRA/Ste29Vdd/f9/Phn3zuOfUkJH2fuss5khZHMP/9Vs5FLbLznMnn8yusdQ411h5ijXmRrF2iXYtHzZbUIckz0qiVtkl63Ej91uhRa839nZ1t63p6egK/U5/Nuq8z0jcltQWYZqeVeW253PfzoHkAPygAaIh8Jn+KNeZ7Cr7Az3VLlnZfyGtRz2338w6XGZl3K4LbAka6LpFyPtzo2wIHHnjg7MlJ7zXW2lVG+hsFe/ahJtl7ZM1/y/F+WCqVev1OkM26bzfSNQq2nsqwcexpvIKJZqAAIHLZrHuuka5XwI1ujMwni+W+S8VrUVOSzS5/sZF3laRjI5h+0Fjz4WKl76uK+LZALpc7yljnAiudI2lWRB9zt4y5znHstwqFwvgLZ3L/UVafV7CfoU951pxSqfQ9GGAOoG4UAEQqm82/38h8TsH+rnlG9hKejK6LyWfyb7HGXK6IbgvIeO8ulUr3hT1xPp8/1nrmU4rmdcc9MtJGT/bfxsdHr964cePIno7J5dx/ldW/BPyoARnvlfVceQDCQgFAVEw+u+yzVvYDAecZN9a+tVgp/lcoqWIqk8nMMyZ1mZF9t8JfAtyzMtemJxIffuyJx7YEncxd4h7sJexnJXNaGOHq9LiM+VCp1Pdt/fGKk8lm818MYYXJ3t0n/4GA8wCBUAAQupUrV6aGB7deZ6U3B5xqu4z32lKpdFsowaBMZtnhjuxVMnp52HNbaYsj++FiuXit6rstkMhl3A/I6F8lpUOOVx+r262pva1cLm/I5fLXyprzAs74kFVtVZAVIYGwUAAQqsWLD+vq6hr5rqxODTjVU46nVxX6C+tCCYZnM/nMsrdaYy+XtCiC+e+V8S4qlUr3T3WA67p5r6bVkl4aQZ6gtkl6UEFvRVjd46l6WqVSGQ4lFRAQBQCh6e5esaAtOX5TCN8uyzLeKdwfjdau2wKJfzUyFyn82wLWSN80Cb3/hfYWyOVyx8k631c0ZaQ1GN2RSiXOWL9+/XPuAAk0GgUAochms0uNErdIOijIPFZ6wNrqqyqVypMhRcMLcJe6R9QcXWWkl0Uw/WYr/d9yuXC99nBbIJvNv9PIXKWAb4i0NGN+6Dj2nKm8XQA0EgUAge16aEu3KOBWtVZaY4x3ZqlU2hpSNEzdHxYR+pyi+CZutM7zdFGlUvjNH34pn82/18pcoZn9c2j1kqXd57FuBVrRTP6HhwbIZNxjjNHNRloYaCKjH3le9ZxKpTIWUjTUIeLbAp6RVidSzj9Wq97psrpWM/tn0NWlcuG9YvlktKiZ/I8PEXMz7hme0be1a9nVIK4qlQvvEz8oW4a71D3SOrrKSsdEMP2Qdm2a40Qwd0uwsp8ol4uXNjsH8HwoAKhLNuu+w0hfVsBviex73tKcbNY930ifUcD9G6Ji2juVyK9QIr9Czr7dchbsK9M1S0okJWtlx0ZkhzfLe/oJef19qvY9LG/zpigjWSv7wXK5+IUoPwQIAwUAvuWzyz5iZS9TsL8/NSv79+Vy8ath5UI0dr/d8QkZvUut8K3dOEquOEqpl56k5MErd53sffA29Wvy3js0+dtfyI4E3g/o2WpWurBcLlwb5qRAVCgA8MPJZ90rrPSegPOMGWvPKVaKPwolFRoin8+vtJ65Sk18Vz95xHFKr3qDnH0CPW+6y/ioJu76qSZ+/n3ZsT2u+uvHhLH2LaxYiemEAoApcV03bWu60UqvDzjVsJVzernc+6tQgqHRnGzWfZuRPq0G3hYwC/dRx9nvVmLZYaHP7W0b0vj3v6rqQ0E25LO/KJWLrwwtFNAAYT/lixnIdd05XlU3yejVQeYx0kYZ76RyuRD6xjFoGDs8PLiua9a+1yWS1XmSOVIRf5FIHXGsOi64VM7i7kjmN+kOpY44Vs6c+ar2/k7yavXMklswb/5vh4aHCqEHBCLCFQA8r2w2u9iYxE9ldWSwmex6K29VuVzuDycZWkEulztK1rlK0tFRzN920muVfvVbJNOYH1XVQo/Grv1kXbcEjPRosVw4VFI9DQJoOK4A4Dm5rpuX59whaUXAqe5NphInF4vFSB+/RuMNDQ1tHBoevH7B/PkbrczLjdQZ1txtp5yt9GnnNuzkL0nOgkVKHnS4quvukqqTfofvPX/Bgt6hocGHo8gGhI0CgD1yl7pHetLtMoFX97tlZKTztIGB37O638xlh4aH1u7Ttei6asLOM9IRCnh1se24U5U+/bxw0vlk5ixQYukyTa69U7L2hQf8yWAdNDQ0+KVokgHhogDgL+SX5k+wjvkfBV3dT1q9YMHcs/v6HmR1vxjYvH3z6PDw4M0L5y64WUYvllTXTfvEkmXqOO+DktO8Nw6dhYtl0u2qPfag36F7z18w71dDQ0PlKHIBYaIA4E9ks+7rZcz3JXUFnOr/lcqFv9+0aRP3Q2NmcOvgpqHhwRvmzZ8/38j4e2WwrV2d7/mETNfsiNJNXWLpgfL6e+Vt9rsvlekcGh78biShgBD5W0EDM1o2m3+Pka5QsMVerJH5p2K573Nh5cK05Blr9vJ7IyC96g1yFrTIrsDGKH3WBapefrE0OeFn5Ktd151TKBS2RRUtDK7rdtdqOsMYu8xaJ+hy3jPNuDG2Yoz9SbFYnLFvdvAWACTJ5LPLPm5l/zngPJNG9h3FcvHGUFJh2spkMu2OST4lac5Ux5h5e2nWpV/2vbJf1MZ/dIMm1vzY3yCjc0ulwupoEgWWyOXcT8rqHyS1NTtMi/OszLXWTl48Ezcqa/6ynmi2RD7rfiWEk/9OGe9MTv6QpIQSx8vHyV+S0iee2XInf0lKnXCGlPJ3njRWqyKKE5TJZdwbZfVP4uQ/FY6RvcAxiZtWrlyZanaYsFEAYqy7u7sjm3W/b6V3BJnHSls8q5NLpdJPw8qGac44x/k6PJ1W6qUnRZUmEGfuAiUP9fcogzU6MaI4geRyy86R0RubnWP6MScPDg6/r9kpwkYBiKklS5bMb0t13GqkMwJONWCtc1ylUvhNKMEwI3iyx/o5PnnoMVK6dW9Dt73kBH8DrPbP5XJLokkTgNUlzY4wXRmZSzTDbptTAGJoeffy/ZOJtjsl6+tb2h48kpx0Xl6p9D4WSjDMGEb+Vo5MrnhJVFFCkVh+mExb2tcYa50XRxSnLt3d3R2SParZOaax7uVLlmebHSJMFICYyWSWH1RNeXdLOiTYTOauam3ir3o39D4RSjDMGK7r7i0/9/+NUcIN+NcxaomkErkX+RpiTOAVNEOVTqf30gz7BttonvEWNztDmCgAMZLL5V7iGO9OSUsDTnXT2PjOVQMDA0Nh5MIMMynXz+FmzgKZ2fOiShMapzvnb4CtbyGkqHiex8/7gGzSzqg/wxn1m8Fzyy/Nnyrr3CFp74BTXbdkafffbty4MfAG6piZvITZ18/xUe3yFzZn0f6+jrd1roQINErrvXOD0GWz7rlWul5SoNdYrOyV5XLxklK54HOBdMSJsd4s6+NKszN3foRpwmPmLPB3vPH3GiTQaFwBmOFymWUXG+nrCnbyt1b2A+Vy8WJJnPzxvKwxs3wNaGuPKEm4TLu/txSMVeu+1gCIKwBRMdlsdomUXC55BxpjZkuaK6vZsjJytE2eRq3RE8Y4lVrNFPv714e9eYjJZ93PWdn3B5xnwlj7llKl+F+hpMKMZ611jI8rAMaZJluS+Mxp+YKFFkcBCIfjLnVfWnPsiUbOCZI9RlLXri/L5k+/Mxv97y8bSbKeEo6UzbpbjNG9ku40xt5cLBYfqTfMypUrU0ODW6+30rlBflOStst4ry2WS7cFnAcx4lhttz6eNbcTo9GFCdOY38dezPZIcjTIvFRSHzxgZj/GcM0TmzQwPt7sGE1DAQjAXeIe7CX1Flm9yZO6zf+e3f0z0kJZnSrpVGvNp7NZt2SsbpTj3VAqlQamOs/ixYd1DQ5u/Z6RTqkryB895Xh6VaG/tC7gPIgZ6zg7ZKf+78DumB7nSbvTZ05jp8dv7Dl0OQmdvbhFNmaKyA+e2RLrAsAlqjq4Gff4XNa91UuoZ/ea2qHXZCPlZPQxWaecy7k/zOVyL7iAx/Lly/fq6hy5PejJ30ol49jjCv0FTv6oQ23Yz9HeM9NjKQnv6Y0+R1hffw5Ao1EAfMhmlx+dy7p3eUZ3SHplgz7WkdWZss59uax7UzZ74IF7zpZdWp2s3SXp6CAfZqUHrK0eO5O3wES0PK+t6Ov4zU/JTrT+t7Dak1O+ECdJMtbx9ecANBoFYAqWLFkyP5fLf8nI+7UkX2uch+zVRrXf5XL5y3ct67lLLpc71FHiHsnssRxMmdEdiYSOr1QqTwZOitiqVB4bkDT1G/teTbVKi68mba1qxR5fQzzZ9RGlAUJBAXgB+Xz+xGQi1SNrLlRr/Hm1yZr/k061r3WXukdks8tfIevcaaX9gkxqpO86jk4tFArbwgqK2PIk0+dnQO2xB6LKEoraxorsNn8LXxrjtXirQdy1wgmtVSVyGfej1jO3Sv5WNmsEK73Ic/QbI+9WSUHXUb26WC6cXSgUWv86LKYH4/3az+GT6+6U9byo0gRWXftLv0O2lkql30eRBQgLBWAPXNdN5zL578joY5Ja+SXlNkmBVlExMv9SKhcuktS6P30x7RhPd/g53g4Ptu5VgMkJTd7vrwAY6ZeSatEEAsJBAfgzK1asmOXVdJOM+dtmZ4lYzVhzYbHc9/FmB8EMlNAd8vlO7MSt34koTDATv73N9+V/a83tEcUBQkMBeJbFiw/rGhsZ/7ka94R/s4wZa88qVvquaXYQzEzFYvFpSff4GVOrrFf10fsjSlSniTFN/Px7fkdZT4kfRxEHCBMFYLeVK1emOjtHvmelY5qdJWLDVmZVsVL8UbODYGYzsjf6HTP2vWulyYko4tRl/Jb/lN26xe+wX1Uqj1UiiAOEipUAdxsaGv6KkQm6et6fqO0zV5P5vTXZvUDevE55XW2SZ+WMTsrZsl2pgUGlik8rsWVnmB/7nIy00RrvlHKp9HBDPhCxVrO17zgmeYV8PKditzyp8R9/TemzLogw2dTUij2aWPMT3+Os9I0I4gChowBIymbdt8vqvDDmGj9kf438zSEafWlOtX3nTmlMsrJFHb8tquuWR5QqPh1GjD2w62s2dUqlzDcTNEalUhnOZd3Vkt7uZ9zEXT9VIn+wkkccF1GyF+ZtG9LoN74g+X8zYXNnZ/o/o8gEhC32BSCfzx9iPf17oEkSjkZOOEjb3vwyTWb39j28mlmo7ZmF2v6Go5V+5AnN/sY96vh1qIuI3ZtMJU7r7X1sc5iTAi/EOPYz1jPnyefbNKOrr1DnrLlKLDs0mmDPw46NaOyay2SHB/2Plf1iT0/PjghiAaGL+zMACWvN16X69+0eP2R/PfmV87TlX06v6+S/p/k2X/46PfPFc1RdujDwfEb6WUdn+qTe3l5O/mi43UtK+/9GXJ3UyLWfUrX3ofBDPQ+7c5tGv/Qx1Z6oa3fuYWPsf4SdCYhKrAtAPpt/t6yOrGesTRhtfedf6en/OFeTy8LfMWvsyKV68vq3afvfveAeQM/Lk67nGwmaybPJj0jyu5euND6q0Ws+rsnfNuaNOu+pJzRyxYdU6++tbwKjy0ql0tZwUwHRiW0ByGazi61MXe/Ae51pbf78G7TtzS+XHB8bn/tkUwkNX3yytlz6GtlkfesRGekzmUwm0GJBQBCVymMVK32yrsG1qsa+faXGvnWl7Jj/DjEl1mry3tu08wvvr2PHvz8wv1uypDvYrUSgwWJbABwlPihpak/pPYs3p13PXHGOxlZmwg/1HEZeuUKbP3OWbFtdj2xkHSUvDDsT4EdnZ/rzRnq03vGT996unZ+6SNX77gh1yeDaExWNXvURjX3r36WJsXqn8YzjvXvNmjXV0IIBDRDLAnDQ/gcttNK7/I6zHSk9c/nrNXHgPlHEel5jR2e15aOnS4k6/pc5+oDruunwUwFT09PTM+Gpdrb87BL4Z+y2IY2uvkIjn36vJn59a/1XBKynWuERjV73aY18/h9ULfjb5e8vGH28WCzeHWwSoPFi+RbARLr6XlnN8jtuy4dO08SKQJvuBTL6iuXaesFfa+6XfC2zLlntb6vmHElfiyIXMBXlcvl32Wz+YiPzlSDzeM88ofH/uloTP7hWiYOPUvLAF8vJr1Bi730lZ8+3yrxtQ/L6e1Xt+51qD98rb+iZIBH+yOr2UrnActqYluJYABxZvc3voB1nHqHREw6KIo8v284+Wm0PDKjjNz5fEzT2XaIAoMnK5eJXc7n8Slnj+wrcn7OTE6o+dI+qD+1ecdhJyFmwSGrvlNM5S3ZyTHZsTHbomWieH7AqWlN7o9j0B9NU7G4B5HK5EyQd4GeMt9csbb3whIgS+WSMht6/SrYj5WuYlY5ZunTZiyJKBUxZqVS8SNb+IPSJvZq8zZvkbSiq2vuQauX18jb1R/Xw4FNOUqvK5fJTUUwONELsCoC1iTf7HTN04QnyOtuiiFOX2uI52v6ml/kel3R0VgRxAL9qnmpvkvTzZgep06Dj6VWFQiHU1bqARotbATBGdpWfAdXuBRo5qfW+OG8/a6W82f7e7rPGnhlRHMCXSqUy5iT0GiO15h7Az+1xp6ZXFPoL65odBAgqVgXAXeK+SJKvR/i3v+El9T15HzGvM60dpx/ub5DV4d3dKxZEkwjwp1AojBfLhXOs7JXNzjJFDxvHHlsYKPy+2UGAMLTemS1CtYR83ci3qYRGTmy9b/9/sHOV73XSnVRqvHk7rAB/ySuXixfLmDdK2t7sMM/J6vqx8ZFjisXi482OAoQlVm8BGOkIP8ePvSTj+zJ7I1UzCzWZW6RUaeo7CBqrwyX53+O0wRYvPqyrvX18Udra6JZanG48jc9ePPvptWvXTjY7SthKpb5v53K5tbLONyQd3ew8zzJkpYvLlQJb/GLGiVUBkMyBkp3y0eNHZqKLEpKxo5b6KgAyOiy6NMHst99+ne3tnRfvek1zxJUkllZ7loQ0NLi1mssu+6WVLi+X+6brQ3R7VCqVeiW9LJdZdoGM/aSkZt6usjL268bon0rFyPboBpoqVrcAJLvcz9Hjh+wfVZDQjB/S7W+AUTaaJMFkMpl92tOdd8vqU5LcZudpYUnJnmRkb81l3E83O0wEvFKl78tOQgcZ6QuSGr6RlZVucTwdWyoVzy9y8scMFpsCsHtDHF/b9oWxHW/Uqkt9fkmyasVW4xiT/IEkn081xpzRh/KZZYEX1GlFhULhmWK58IFkysla2U9IdlPEHzkh6Xsy3tHlcuHUQn/h1xF/HtB0sSkAbW1tvpb+rc3tkNfV+svnV/eZ53fI3pJa6r56PpN/nZH8L2wAecZ+cr/99utsdo6o9Pb2bi6Xi5eWysUDjLWnyupbkoZCmr4qmbtkdNHEZHrfUrnwulKpdF9IcwMtLzbPAIyPm9m+3uZroYV/no/tSMkmHJnalHdIczKZTLpSqdS99VnYrDGva3aG6cpIC9vbu06UdHOzs0SsVqwUb5F0i6RELpc7wtjECZJ9iZWWSzpQ0vM9setJdkAyvUZ62BqzJpVyfrl+/frWffMAiFhsCkAqVev0fKzY7aX9LbXbTLY9JbNzfMrHO46TltQyBUAyy/w8nIk/5+/ZlhmgViqV7pd0/7N+zVnevXzfyZSZ5TjVWdYm5htTG7HWbq/VUjuMGd/USqUXaAWxKQDOhDPqJaa+j7iZmD7Pn5sxf2+FzZ8/P5LF0etnZ+wl7EYw1nQ1O0ML8Ho39D7R7BDAdBKbZwC8Ns/XpT4/36ibyYxN+rn8L0ljM/E9cgCAP7EpANVq1VcBSGwdlTPS+iUg+eRWv0O2RZEDADC9xKYA7L7/94yfMcmBwYjShCfZv8XfAKMN0SQBAEwnsSkAu/X6OTj9cOvfUvSd0dNj0SQBAEwnsXkIUJJktV5Gx0718PZ1/dr+uqOiTBRY+7qK3yG+SlAr2ndRp5LJllrKIFTbtk9q6/aJZscAMMPFqgAYYx+0PtbASd9XlrNjTN6s1twQKPn4oFIFfyuVOtKDEcVpmNX/9got3d/Xuk7Tyr9d36P/uJELNQCiFa9bAI7u8HO4maiq8/bW/UHcdcsjfofUJryJO6PIAgCYXmJVAIrFYo+kp/yMmf3deyWv9RapMaOT6rrJ75d5s25gYCCsZVQBANNYrAqAdi0352sL1WT/oDrveDSiOPWb/YO1Sgz7W8/HyvtZRHEAANNM3AqAPKtv+h0z7+o75Iy2zto5icEdmv1N/5uVWZtYHUEcAMA0FLsCUKkUfmGkjX7GJJ7ZrrnXrIkokU/WasHnfibH/0qF91Yqva37QAMAoKFiVwAk1SRzg99Bs364Th13ro8ijy+zv3u/2u/u8z3OWHN9BHEAANNUHAuAEinzRUk7fA2yVgs/cbPSjzRvcaCO3xQ190u31zP0yfHq6I1h5wEATF+xLAC9vb2bZXSt33FmbFILP/x9pUr+3r0PQ/rBAS386I9kanW8kWD02Q0bNoyGnwoAMF3FsgBIUq2W+qwkXxsESVJieESL3vMtpR96PIJUe9axZr32/sB3ZOp7EPHxsbGRa8LOBACY3mJbAPr7H90ko4/VM9bZMaa9L/mW5txwV6RrBJia1Zwb7tJeH/uRzES1zknMJRs3bvT3viAAYMaLbQGQpCVLuq+U9FA9Y03Nau4Nd2nR+1ZHckugbf0mLfr7GzU3WMm4tVTq+0GYuQAAM0Os9gL4c2vWrKm6S93zPUf3SKprwf/07zZo8du/ppG/WaFt575M1QMWBMrU1vuU5tx4tzp+1SfZQFcXBmW8dwYKAwCYsWJdACSp0F94IJdz/1FWV9c7h6l56vqfh9X1s0c0dvgSjaw6RGNH51Rb2DWl8cmNw2r/TVFdt/ao7fe+lih4LlbGvLVUKg2EMRkAYOaJfQGQpFKp8KVcxj1ORm8MNJFn1b6uX+3r+iVJ1SULNJlfpMnuBfLmdcrrTEmelTM6KWdop1IDg2rre0qJJ7eG8dv4I6vLS+W+m8OdFAAwk1AAduvoSp8/NjK+0EqrwpozOTCo5MCgOsKacCqs/XapUvznRn4kAGD6ifVDgM/W09MzYRJ6vYzWNTtLvYz0s/kL571VktfsLACA1kYBeJZCobCtWp04WTJ3NTuLX0b6yfjk2GvXrl3bOrsWAQBaFgXgzwwMDAw5CXuyrJ0+r88Z+7UDlnb/Hav9AQCmigKwB4VCYXxJ5oA3yOrTkqJb6Se4CVlzSalUPH/NmjV1rhQEAIgjCsBzWLNmTbVUKXxYxnulpCebnWcPkvY1XwAAB0tJREFUBhxPx5cqfVc0OwgAYPqhALyAUql028RkeoWVvVKt8XBd1cpe6SR0aKG/8OtmhwEATE8UgCnYsKFnsFwuXmwc+1eSua+JUW51Ejq8XC5eXCgUtjUxBwBgmqMA+FAsFu8ulfuOlvFeIZnbGvfJ9hee1ctK5cKqQqHQ07jPBQDMVCwEVIdSqXSXpJNd113heXqzrN4qaZ+QP2aDjFZL3vWlUqk35LkBADFHAQhg97fxDx1//PEfqVQ2HOs4OlHWnCjZl0pK+ZxuVLJ3y5jbrXVuK5d771Nrv4EAAJjGKAAh2P0K3i93//fRlStXpoaGhrLWOgcZo7yxZqE13ixZM8tInrXaYY3d4Vhns+T1JrxEb+9Ab7+kWnN/JwCAuKAARGD3any9u/8DAKDl8BAgAAAxRAEAACCGKAAAAMQQBQAAgBiiAAAAEEMUAAAAYogCAABADFEAAACIIRYCAhDIAQccuF9bsnaRlU6y0t7NztNqjNWojB5wrK4rVAprmp0H+AMKAIC6ZbPuWUa1r1mpS5JMswO1ol1/KCs8o3NzufzXOjra39XT0zPR5FQABQBAfXK55SfLet8WP0emzprzRneOe5Le3uwoAM8AAPDt+OOPT8p6V4uTv39Gb8vlcsc1OwZAAQDgW6Wy4VhJy5qdY9qyznnNjgBQAAD45sgc3uwM09yLmx0AoAAA8M0YzW52hmluXrMDABQAAPXggX9gmqMAAAAQQxQAAABiiAIAAEAMUQAAAIghFvEAELm2V5ymtr8+vdkxIuMNPa2Rqy5tdgzAFwoAgOh1dsnstbjZKSJj5DU7AuAbtwAAAIghCgAAADFEAQAAIIYoAAAAxBAFAACAGKIAAAAQQxQAAABiiAIAAEAMUQAAAIghCgAAADFEAQAAIIYoAAAAxBAFAACAGKIAAAAQQzN2O2DXddNe1ZxvjT3DSBkrtTU7UysxRmPWqs8YfbdUKvynpFqzMwEAGmdGFoBMZvlBXs37iYxdZnb/mnneETFkJSMdLKszcln3fZPVxGsff3z9xmbHAgA0xoy7BZDJZPZxjPdzScuanWUaOTqVrN2yePFhXc0OAgBojBlXABImeZmk7mbnmIYOndU5+g/NDgEAaIwZVQAymUy7lc5pdo7pypM9v9kZAACNMaMKQCKRcCXNanaO6cpIOdd15zQ7BwAgejOqAEia2+wA012tVpvf7AwAgOjNtAIAAACmgAIAAEAMUQAAAIghCgAAADFEAQAAIIZm5FLAUzWxfB9tuezMZseI1KL3rlbime3NjgEAaDGxLgA2nVR1v3nNjhGtBBd5AAB/ibMDAAAxRAEAACCGKAAAAMQQBQAAgBiiAAAAEEMUAAAAYogCAABADFEAAACIIQoAAAAxRAEAACCGKAAAAMQQBQAAgBiiAAAAEEMUAAAAYogCAABADFEAAACIIQoAAAAxRAEAACCGKAAAAMQQBQAAgBiiAAAAEEMUAAAAYogCAABADFEAAACIIQoAAAAxRAEAACCGKAAAAMQQBQAAgBiiAAAAEEMUAAAAYogCAABADFEAAACIIQoAAAAxRAEAACCGKAAAAMQQBQAAgBiiAAAAEEMUAAAAYogCAABADFEAAACIIQoAAAAxRAEAACCGKAAAAMQQBQAAgBiiAAAAEEMUAAAAYogCAABADFEAAACIIQoAAAAxRAEAACCGKAAAAMQQBQAAgBiiAAAAEEMUAAAAYogCAABADFEAAACIIQoAAAAxRAEAACCGKAAAAMQQBQAAgBiiAAAAEEMUAAAAYogCAABADFEAAACIIQoAAAAxRAEAACCGKAAAAMQQBQAAgBiiAAAAEEMUAAAAYogCAABADFEAAACIIQoAAAAxRAEAACCGKAAAAMQQBQAAgBiiAAAAEEMUAAAAYogCAABADFEAAACIIQoAAAAxRAEAACCGKAAAAMQQBQAAgBiiAAAAEEMUAAAAYogCAABADFEAAACIIQoAAAAxRAEAACCGKAAAAMQQBQAAgBiiAAAAEEMUAAAAYogCAABADFEAAACIIQoAAAAxRAEAACCGjN8BruumbdW8yxr7RkmHSOoKPxYAAHgBOyU9YmW/2dnZ/pWenp4JP4N9FYDl3cv3r6a8/5b0Yj/jAABApB5MTjqv7t3Q+8RUB0y5ALium/Zq+q04+QMA0HKs9EBnZ/qYqV4JmPIzALZq3iVO/gAAtCQjHTEyMv7OqR4/9QJg7JvqiwQAABrBkc71ceyUHVxHFgAA0CB218P5U8JrgAAAzBzeVA/0UwB66ggCAAAaxPo4V0+5ABjZ1fXFAQAAjWCMvjnVY6deABLmK5IerCsRAACIltG6jo70tVM9fMoFoFAojCcnnVeLEgAAQGsxWjc5mXiNn9UAE37m37Jty/b99t/3hsnJ6tOSmW+k+ZLafAcFAABB7bDSWmP0mY6O9EWFwqPDzQ4EAAAAAAAAAAAAAAAAAAAAAAAAAAAAAAAAAAAAAACey/8H9eEpgiioV7AAAAAASUVORK5CYII=;imageBorder=default;" vertex="1" parent="1">
          <mxGeometry x="830" y="185.75" width="78.5" height="78.5" as="geometry" />
        </mxCell>
        <mxCell id="VRgb0AQ02M4O2JBaCQAd-9" value="" style="shape=image;verticalLabelPosition=bottom;labelBackgroundColor=default;verticalAlign=top;aspect=fixed;imageAspect=0;image=data:image/jpeg,/9j/4QC8RXhpZgAASUkqAAgAAAAGABIBAwABAAAAAQAAABoBBQABAAAAVgAAABsBBQABAAAAXgAAACgBAwABAAAAAgAAABMCAwABAAAAAQAAAGmHBAABAAAAZgAAAAAAAABIAAAAAQAAAEgAAAABAAAABgAAkAcABAAAADAyMTABkQcABAAAAAECAwAAoAcABAAAADAxMDABoAMAAQAAAP//AAACoAQAAQAAACADAAADoAQAAQAAAKIBAAAAAAAA/9sAQwAGBgYGBwYHCAgHCgsKCwoPDgwMDg8WEBEQERAWIhUZFRUZFSIeJB4cHiQeNiomJio2PjQyND5MRERMX1pffHyn/9sAQwEGBgYGBwYHCAgHCgsKCwoPDgwMDg8WEBEQERAWIhUZFRUZFSIeJB4cHiQeNiomJio2PjQyND5MRERMX1pffHyn/8AAEQgBogMgAwEiAAIRAQMRAf/EAB0AAQACAwEBAQEAAAAAAAAAAAAHCAUGCQQCAwH/xABMEAEAAQQBAgIECAkJBgUFAAAAAQIDBAUGBxESQRMhUWEIFCIxcXSSshYyNTY3VnOBsSMzQlJTcqGz0RUXRpGTwRgkNGJjJUSCoqP/xAAbAQEAAwEBAQEAAAAAAAAAAAAAAwUGBAIHAf/EADMRAQABAwEDCgUDBQAAAAAAAAACAQMEBRESFAYTFSIxMzRCUlMhQVGCoSMy8DVUYXLh/9oADAMBAAIRAxEAPwC1IAAAAAAAAAAAAAAAAAAAAAAAAAAAAAAAAAAAAAAAAAAAAAAAAAAAAAAAAAAAAAAAAAAAAAAAAAAAAAAAAAAAAAAAAAAAAAAAAAAAAAAAAAAAAAAAAAAAAAAAAAAAAAAAAAAAAAAAAAAAAAAAAAAAAAAAAAAAAAAAAAAAAAAAAAAAAAAAAAAAAAAAAAAAAAAAAAAAAAAAAAAAAAAAAAAAAAAAAAAAAAAAAAAAAAAAAAAAAAAAAAAAAAAAAAAAAAAAAAAAAAAAAAAAAAAAAAAAAAAAAAAAAAAAAAAAAAAAAAAAAAAAAAAAAAAAAAAAAAAAAAAAAAAAAAAAAAAAAAAAAAAAAAAAAAAAAAAAAAAAAAAAAAAAAAAAAAAAAAAAAAAAAAAAAAAAAAAAAAAAAAAAAAAAAAAAAAAAAAAAAAAAAAAAAAAAAAAAAAAAAAAAAAAAAAAAAAAAAAAAAAAAAAAAAAAAAAAAAAAAAAAAAAAAAAAAAAAAAAAAAAAAAAAAAAAAAAAAAAAAAAAAAAAAAAAAAAAAAAAAAAAAAAAAAAAAAAAAAAAAAAAAAAAAAAAAAAAAAAAAAAAAAAAAAAAAAAAAAAAAAAAAAAAAAAAAAAAAAAAAAAAAAAAAAAAAAAAAAAAAAAAAAAAAAAAAAAAAAAAAAAAAAAAAAAAAAAAAAAAAAAAAAAAAAAAAAAAAAAAAAAAAAAAAAAAAAAAAAAAAAAAAAAAAAAAAAAAAAAAAAAAAAAAAAAAAAAAAAAAAAAAAAAAAAAAAAAAAAAAAAAAAAAAAAAAAAAAAAAAAAAAAAAAAAAAAAAAAAAAAAAAAAAAAAAAAAAAAAAAAAAAAAAAAAAAAAAAAAAAAAAAAAAAAAAAAAAAAAAAAAAAAAAAAAAAAAAAAAAAAAAAAAAAAAAAAAAAAAAAAAAAAAAA8Gxypw9fl5MUxVNmzXcimZ+fwx3R9wbqNi8j74mXRbxs6PXTRE/Juf3fF5wCUAAAAAAAAAAAAAAAAAAAAAAAAAAAAAAAAAAAAAAAAAAAAAAAAAAAAAAAAAAAAAAAAAAAAAAAAAAAAAAAAAAAAAAAAAAAAAAAAAAYbkH5C2n1S992VcuO8WjbcUx8vEuTY2Ni/cmzeie3fwz80z/CVjOQfkLafVLv3ZRL0y/Na1+3uqXWsm7jYsLtuWysZ0dOLCM57Ktj4TzirY1TqNtR6HaWfVMVer03bzhKCvPUi1rLNGLl0V129rFyPi82vx6vX5/R5S3Xg/Oa9pP8Asvb0eg2lmO0xV8n0vviHVp+bTLsQnWm7J4vW+bnsSkAsEIAAAAAAAAAAAAAAAAAAAAAAAAAAAAAAAAAAAAAAAAAAAAAAAAAAAAAAAAAAAAAAAAAAAAAAAAAAAAAAAAAAAAAAAAAAAAADDch/IW0+qXfuyiTpl+a1r9vdS3yH8hbT6pd+7KJOmX5rWv291nuUngPvo7MPvGwV8a1t3exuLvjuXqaIpooqnvRRNMdu8R7WN5TxajbUU5mJX6DYWflWrsT4fF4fKZ/hLdGscqx95laz4tqpopuXq4ouVzV4Zpo85hkcTLyI5FqtLu7u/Der2UosbluG5LqvvgfPqNxH+zNlNFvY2e9PuveHzhKqAMrp1jW9Tj06+9Va2OP8ujIie011Nv4TzevYV16nb0+g2ln1TFXyYu++G+wtRx8ulaQn8Y/zaqLlmdvtSiAsUIAAAAACKMzrRwPCyr+Nfzb0XbVyaK4izVPaYlu+u5HqNhpLW6tZVNODXbmuLt35ERTTMxMz3c7eWfnPvPr1/wC/KWtflbjmXHOL8L0lcxRZx7l3YXJ7xRE+lmYioEvbP4QPD8K/NnGx8vMiPnuURTTT/i2nifVriPJr9GNYyK8fKrn5Ni/EUzV7qZ82i2Pg6ccpxYpu7bNqv/2tPhiP+TRND0V3ODz3Exs35eusT6f41R6ouU0fNR7qgXGfjdvWbNqu7drpoopjvVVVPaIj3y/ZR7q9zjke13eVp7tq9hYePV2pxvXE3PZXWCwe662cD1Vc24zLmXXHljU+OPtTMNRn4R/G/F6tLnzH00MX036IYXxSxs+R2pru3Iiu3hz6ooj/AORP9nifGLFqLdrRa+miI7RTGPR/oCLNb8IDhWVVFGTRmYvvuURV9zumPW7bW7bEoysDLtZFmv5q7dUVQhzqH0h0G11WVl6jX0YmwtW5rtxZpiii77aZphV/gnN9lw/c2si1drnFm5EZNjyroB0UHmx8mzlY9nIs1xVRcoiuiY84qjvD0gMFu+RaTQ40X9psLONR5eOrtNX0R88te6hc4xOH6WcquKbmTc70Y1n+vV/ooln7LkXL93TXeru5ebkV+G3RHefn8qI8oBa3O+ELxDHuTRjYedkx/XimmiP8ZfGJ8IjiN6qIyMHPse/w01/wl4OJ/B/1FjHt3+QXrmRkT65s258Fuj/VvOT0V6eZFibUambc+VdFyqKgbnx/lWi5Hjen1WwtX4j8amJ7V0f3qWpbTrDwbV7DKwMvNvU38e5NFymLNUxFUK+8l4fv+le5xd5qMqu9g+liPFP3LsR5Ik5fs7G15Nt8/HmZtZGTXco+ioHRHjvIdXyPV2tlrblVePXXVTTVVTNM96Z7T6pZ1DvQj9HOv+sZH35TEAjrkXVDhnH667WXtKa71Pz2bH8pXEot64845Fqps6fBs38XHv2+9zM+abvtt26o/wAUddL+lFzlPfa7aq5b10VfIiPVXfqBKd34RnGKZn0Wpz7n2KXoxfhD8RuVRTfwc+z75ppq/wC6VcDhHEdZYptYuhwaYiPOzTXVP0zMTMsPyPphw/fYdy1c1ljHuzHyL9iiLddE/uBnuPcu45yOzNzV7G1fmI71URPauPpplszm5l295wjlGTZtZNdnLwr/AGiuiZiJ84n3xML6cH5Ta5TxvC2lNMU11xNF6iP6Fyme0wDb38me0P6rb1157mayixodfdm1dv2/Hk3Kfnijyp/eCQeQdXuFaG7Vj3c2cm/T6qrePHpO0/S0b/xG8Z8X5Iz/AA+35DUukvSTX7fW295vaartm7M/F8fv6piJmJruLFU8E4XTb8Ecc1vg7du3oKP9AavousfB91cizTn1Yt2fmpyI9H6/p7pRpqprpiqmYqiY7xMT3iVf+cdDNJnYt/J0Fv4pmUUzMWY/mrnu9yPujHUDZ6/dWeN7O5crx79c2rMVz67N2PIFxQAAAAAAAAAAAAAAAAAAAAAAAAAAAAAAAAAAAAAAAAAAAAAAAAAAAAAYbkP5C2n1S792USdMvzWtft7qW+Q/kLafVLv3ZRJ0y/Na1+3us9yk8B99HZh94kIBgFw/K9dps2q7tc9qaKZqqnt5UoUnX7fmewyNvizGHasR4cSuY8NVdVPvhN8xHbtL4t26LdEUW6KaKY+ammO0Q78LNlh707cOv6voguWec+Ff2sJwnm9zYVzqNxT6DaWfV2q9UXojzhKCu/UiNdT8TrtTXG28cfF5tfj9u/n2bnwjnF3PuTqNzT6DaWfV8qPD6Vv9PzeKx7c5U3Zy+SovW+bnsSsAskIAAADmbyz85959ev8A35W56A6O1hcPq2Xhj02der+xZmaIVG5Z+c+8+vX/AL8ry9H4iOnPHf2Nz/NqBJoADVN3wzj282Guz87DpuX8O547dXt91fthtarvU7rTfxsnI1HHbkU12p8N/M9/nFsFk8nZa/DiZys3Hs/tLlNH3pfhj7zSZVXgx9piXavZRepqn/CVEeM8J5hz7KryIvXK7UVdruZk11TSluj4ON2inxU8k7XvbFme38QWo9Uw5rczwqcDle9xaIiKbWdeimPd4k6RvOo/S3Ls29tcq2Wqqq7RXM1V/Yqq+ZBvNdpibblW42GJVM2MjIm5bmY7T2mAXl6VZU5nT7jtyurvV8Wmj7FU0f8AZIaKOi09+m2i93pv86pKlyrwUVVeyJkFDes3JLm65pmWouTOPgz8XtR9+UlfB64paq+Pciv0RNVFfoMafv1Ky7C/XlbDMv1z3quX7lcz76pmV7ui2NTY6caT23PTXJ/fdkErgAwfIdLi73TZ+syaYmjIszT9E+U/ulzSy8W7iZWRjXY7V2btduqPfTPaXUlze6g0Rb5tyKiPLOu/xBb/AKEfo51/1jI+/KYkO9CP0c6/6xkfflMQNf5HxnUcl1lzX7PHi5aq9cT81VE+2mfKXsxrOt0+ux8a3NnHxrFuKKImqKKaYp+lF3VDqnY4lajCwoovbO7HeIn102afbWqhYnnPULcxZpv5Obfq9c96pi3aj2z5UwC/VHI+PV1xRRuMGap8ov0TP8WXororpiqmqKon5pie8Ko4fwb8v0MVZe/oou+y1amqI/59nnzeMdTum1Px/VbWrP11uO9y13rqpj+9bn+INe+EDg02Ob2r9MRE5GFRVP7vkf8AZI/wcMuqrR7zGqn1W8u3VTH7SlCnVDmuFzDJ02dZszavW8SaMi35U1+JLPwaa/5Hk8f+7Gn74LSqH9dabsdRM/xedjHmn6PAvggHrV07y+QWbG31dr0mbjUTRdsx89237vfAM/0b5Nq9pw/W4Fq/RGXhWfR3rMzEVer5qoj2Sl9y9xsrY6rMi7YvX8bJtz+NTM266ZTHoOvXMNZFFvNixsLUfPNyJpufbgF32g0dNOF0bWNpRqaIy4v+mi5FdX47SuP9e+H7OaLWdTe192fO5EV2vtQmnEy8TNx6MjFyLd61XHemu3VFVM/RMA9QAAAAAAAAAAAAAAAAAAAAAAAAAAAAAAAAAAAAAAAAAAAAAAAAAAAAAMNyH8hbT6pd+7KJOmX5rWv291LfIfyFtPql37sok6Zfmta/b3We5SeA++jsw+8SCj7qPnZuHpbFeJkXLNdWVRE1UT4ZmO0z27pBRt1Q/IeJ9coZLSoxln2Iy9ayyO6k93FOWVZ01a3ZUTY2Vn1VUVR4fSe+Ib2wnL+D2t5jWM3Bqixs7NETbuxPh8fbyqmGA4tyq7mXK9ZtLc2NlZ+TVRVHh9J4fOIW+s6NW1WV6xH9PzR+jlxsrb1J9rM08a1sb27ua4rryKqYimKp700eGO3eiPJj+U8Xtbi1Tk49foM6z8q1eifD83lMtyany3C3mfgUYmsroo9Nc8N+uZ7TTR7lPiZV/ibVef3KQ+G9X5UdNyEKwl1H3wLn9G27azZ10U7C36or7xFN/t7EsoIzunuDGpx7evrmznY/yreRE9prq+f5cw2PhHOLubdnT7mPQbSz6vleqLv0N9g6hj5lJUhPrR/m1UXbE7falYBYoQAHM3ln5z7z69f+/K8/R/8ARzx39jc/zKlGOWfnPvPr1/78rz9H/wBHPHf2Nz/MqBJYAI96n7+5oeFbXNs1zTfmiLNmfOK7sxCg2l1l7c7jBwLcz6TKyKLcT/en1yuh16xrt7gF6qif5rKs1V/Qql01ybOLzvj1+9MRRTmUxP8A+UTEA6BabT4Wl1mLrsK3TbsWKIpppiPn9sz75llgBiN1p8DdazK12daiuxftzFUT5eyY9kw5v8i09el3mx1ldcV1Yt+u34o84p+aXTdzj6i3rV7nPIrtq5FdFWbc7VQC4fRL9G+k+nI/zqkq3aPHbro/rUzCKuiX6N9J9OR/nVJZBy4zbNdjMybVUdqrd2umY99M9l8+i9+m9040nnNHpqJ90xdqVP6t6CvSc22dEUTFnJr9PZ+itNHweOR2q8LYaK7XEXLdfp7MT50z84LOAAOcHUSYq5xyOYn/AO/uuhe42uLqNZmbDJrimzj2prrmZ9nk5n7HOu5+wy8y5+PfvV3KvpqnuC8XQj9HOv8ArGR9+Us5WTaxca/kXZ7UWrdVdU+6mO8om6Efo51/1jI+/KRuR493J4/t7Frv6S5hXaafb3qpkHOTkG5yt5uc/Z5NUzcyL01/RHlH7oXk6TcVsce4lg/yURlZdEX8ivz+V66YUC7eGe0x64n1w6b8eybGXodTfsTE27mHaqomPZ4YBmXxXTRXTNNVMTTMdpiY7xMPsBQfrBxHG4zyuqjEiKcXLo9Patx/Q8qqUofBr/4j+jH/AIS134Rd+1c5Rq7dFcTXawvlx5x4qmxfBr/4j+jH/hILUD5qntTM9u/aPmQHhdfuP5G0sYNeozLM13otTXXNHho8gSFyXpxxHkseLP1tEXv7ezEW7n75hBm8+DlfjxXNLt6a48rWTHb/APaha8BzZ5Hwnk3Grnh2mtuWqZn5N2I8Vur6KoZvgHUPbcP2Vqbd2u5g11RGRjTMzTMe2mPKpf3P1+DssS7i5uNbv2LkeGu3XEVRMOdfOdHa4/yzcauxMzasX+1vv/UqiK4B0Vws7Hz8LGzMauK7V61Fy3MecVR3h7UcdJLlyvp3x2bnz/F6oj6Ka5iEjgAAAAAAAAAAAAAAAAAAAAAAAAAAAAAAAAAAAAAAAAAAAAAAAAAAAAw3IfyFtPql37sok6Zfmta/b3Ut8h/IW0+qXfuyiTpl+a1r9vdZ7lH4D76OzD7xISNeqH5DxPrlCSkadUPyHi/W6GT0j+o4/wDusMnuZJ3sRHoLP9yn+DQOa8It723Tm4Uxj7OzHe1dj5Pi7eVcw3Wxm4UWLX/mrP4kf049j9fj+F2/9VZ+3D6ZWlK02KNDvF+U3cu7Xq9rbmxs7PyaqKo8PpPD5w3pg+Z8X1m9tU5eJmWbGzs+uzfi5FPi7eVcw1/inLKs6urWbKItbGz8mqJ9UXfD5wxOs6NzW/fsR6vmj9P+LTFydvUn2t1ysi1jY96/c7+C3bmurtHee1KGKdRueZ5WTuaK/idNuPDheU1TTPthNsxHaYmO8T5S+aKaaKYoopimmPmiI7RClw8+WFGVbcP1Jeb6UdNy1znb2MBwnnF3Nu1abdR6DZ2o7R4vVF2EqK6dR/8AZ9V3Box6a5281x6GbU9qojv/AE+zduFc3u5l2dNuafQ7O16omv1emfQMDN4nHtzlTdnLyqi9a5uexKwCxQuZvLPzn3n16/8Aflefo/8Ao547+xuf5lTVNj0E4tnZ2VmXdhnxXeu1XKoiqnz/AHJW4zosXj2lxNTjV3K7ONTMUTcmJqnxVTPr7A2AAGG3+nxN3p8/WZMfyWTZmiqfZ7J/dPrc6+R8c2vF9zfwM2iq3etVd6K/XEVx5VUS6WtW5NxDQcnxPi+0w6LsRHyLkeq5R/cqBF3TnrDqNxhWMHd5dGLsLdMUTXcmKaL/ANCaq9nraLU3q87HptxHfxzdpint9PdWzYfBusVV+LA31VFHsvWu/wDB+mH8HTt6s7kd2aPOmzb/ANQZPqJ1lw6bNen4vcnKzb3yJyLXri3+z9tapGww83AzcjFzLdVvIt19rtNXzxV8/r97oLxfptxPjHa5g4MVZER/6i78u41De9DeM7vb5uzyM3Npu5V2a66aJoimJn9wMp0S/RvpPpyP86pLLWuLcbw+M6TE1OJduV2bE1+Gq5MTV8uqa579ohsoIr6p8Ao5jpo+L+GNhi95x658+/z0TPvUkwsvd8T3tu9RTcxc7EueumuJiY90x7JdL2lcq4BxflNv/wCpYNM3YjtTkUfIu0/vBH/F+uvFdnj2qdrd+IZXbtXFUTNrv7pbjmdVun+JZm7PIMW72j1U2p8dX+CIc/4N1jxzODvqqafZetRV/B8YXwbrcVROdv5mPZZs9v4g1jmPP9x1J2eNx3Q49y3h3Lsf3rvvueymENcq1VjUci2uuszM28bIqt0zPzz2X84nwTjvFLE0a3F7XK47XL9fyrlaivUX8+eR/XrgLe9CP0c6/wCsZH35TDMd4RB0Ot+Dpzqo/rXcir/+spgBQrqzwPJ4vvsjIs2ZnXZdybli55UTV65ty3fpD1axNNjUaPeXfBi0z/5bJ8rfnNNfuWu2Wr1+0w7mHnYtu/YrjtVbuR3iUA7v4O2lybs3dXs72LEz/N3Ii5SCe8bb6rKsU3sfYY121Mequi5TMf8APujfmvVzjXG8a5RjZNrNzv6Fi1VFURPtrmEY43wcsume13ksRR/8dqYn+KSuN9FuG6O5RfrsVZ2RHrivJ7VURPuoBTPkte/zMyna7i3cpvZ8VXqKq4mPFTE9vVE+Swfwa/8AiP6Mf+Epa5p0t0fMMzFys3JybVVizNuim1NMR2/fEvXwjp1qOF/HfiGTkXfjPg8fpZpnt4Po7AkNSPrF0+zNHucnb4diqrXZVfjmqn1+hrnyXcee/Ys5Fqu1etUXLdcdqqK4iqmY98SCuPTbrTr72JY1fIr8WMi1TFFvLq/Eux/7/esNj7PXZNuLmPnY92ifXFVFymqP8JQ7yDoLw/aXKr2DVe19yrytdqrX2amiz8HPZ25/kOTURHvt1f8AaQTxyTnnGOOYly/m7KzNyI+RYt1xVcqn2RTEqNTZ3PP+ZZFeNYmcjOyJr85ptU+2Z8oiE+4XwccP0nj2O+u3I84tW4p/inHjHDOPcXxvQ6rDi34vx7s/KuV/TUDKaPU2NPqMDXWP5vGsUWqZ/ux87LgAAAAAAAAAAAAAAAAAAAAAAAAAAAAAAAAAAAAAAAAAAAAAAAAAAAADDch/IW0+qXfuyiTpl+a1r9vdS3yH8hbT6pd+7KJOmX5rWv291nuUngPvo7MPvEhMLvNFg7zDjFy/HFEVxXE0T2mJpZp/GDtXLlu5GcJ7sorasaSjsqjr/djx7+3zf+pB/ux49/b5v/UhIw7+l9Q/uJouHtehHP8Auy49/b5v/Uh++J050OJl2Mq3dy5rtVxXT3uR89Lfx5lqudKO7K/N+8xa9IAr0zXsfjWts7vJ2/auvJu9u01z3i36u3yGO5Xxext7EZNm5FjOsR4rV+J8PzeUy3Jp/L9du9pi4+Fr7tFu1dr7ZVcz2mKfcscPJv8AFWpVv7u75q/KlEFyEawlTdfpwDqBRt4p1myuUxn0fJor8r8Ql1Bey4Brq9Vj2tdPoMvGjxWr/wA1VVXz/LmGe4Tze9mXatNuo9Ds7Pq71eqLre4OpY+ZStIV60VRdsTt9qVwFkhAAAAAAAAAAHms5OPfm7Fq9RXNurw1xTVE+Gr2T7JaL1KyuVYnGMq7x23FeTH85MRM3KbfnNuPaqX016k5nE9zdnNruXcLKr75VMzM1RV/XBfcYvVbbW7fCt5mBlW79i5Hemuie/8Az9ksoD+TMRDmly/No2HKN3lUT3ou5t6qn3x4lwuqvUvX8f1WTrsHJoubO/RNuIonv6GJ+eqtXHpXwPI5XvbN29an/Z+LcivJr8qvOKIBcPp5ratTwnQYdyO1dGJFVfum53rn+Ld3zERTEREdoj1REPoAAAAAAAAAAAAAAAAAAAAAAAAAAAAAAAAAAAAAAAAAAAAAAAAAAAAAAAAAAAAAAAAAAGJ3duq7ptlbt0+KqrFuU00x88zNM+pXjivINjotRTg3OO7C7NNyurxRbmI9aznY7ObKxbGTb5u7Hei9wuSty2xQL+Hub+q+y+xJ+Hub+q+y+xKeu0HaFd0Dpvtfmqbi73qQL+Hub+q+y+xJ+Hub+q+y+xKeu0HaDoLTfa/NTi73qQL+Hub+q+y+xJ+Hub+q+y+xKeu0HaDoLTfa/NTi73qQL+Hub+q+y+xJ+Hub+q+y+xKeu0HaDoHTfa/NTi73qQL+Hub+q+y+xJ+Hub+q+y+xKeu0HaDoHTfa/NTi73qQL+Hub+q+y+zLVOTbK7uqLV23xvZY+bamJtX4onvHuntC0vaDsmsaThY9yM7UKxlT/NXmeTcnHZVHvT3kO42+uuW9rhXrV/G8ETdrommLsVefr84SGC0QAAAAAAAAAACIOZdG+M8lrrybVM4OZV892zEeGv8Av0JfAU8p6MdTdFeqq0m5o8Pts5FVmWQu9P8ArlsaPQ5fIKqLfvy6o+4tmArDovg82absXt7tZv8Ab1zasx2/xlYrV6nW6fCtYevxrdixRHamiiO0fT75ZQAAAAAAAAAAAAAAAAAAAAAAAAAAAAAAAAAAAAAAAAAAAAAAAAAAAAAAAAAAAAAAAAAAAAAAAAAAAAAAAAAAAAAAAAAAAAAAAAAAAAAAAAAAAAAAAAAAAAAAAAAAAAAAAAAAAAAAAAAAAAAAAAAAAAAAAAAAAAAAAAAAAAAAAAAAAAAAAAAAAAAAAAAAAAAAAAAAAAAAAAAAAAAAAAAAAAAAAAAAAAAAAAAAAAAAAAAAAAAAAAAAAAAAAAAAAAAAAAAAAAAAAAAAAAAAAAAAAAAAAAAAAAAAAAAAAAAAAAAAAAAAAAAAAAAAAAAAAAAAAAAAAAAAAAAAAAAAAAAAAAAAAAAAAAAAAAAAAAAAAAAAAAAAAAAAAAAAAAAAAAAAAAAAAAAAAAAAAAAAAAAAAAAAAAAAAAAAAAAAAAAAAAAAAAAAAAAAAAAAAAAAAAAAAAAAAAAAAAAAAAAAAAAAAAAAAAAAAAAAAAAAAAAAAAAAAAAAAAAAAAAAAAAAAAAAAAAAAAAAAAAAAAAAAAAAAAAAAAAAAAAAAAAAAAAAAAAAAAAAAAAAAAAAAAAAAAAAAAAAAAAAAAAAAAAAAAAAAAAAAAAAAAAAAAAAAAAAAAAAAAAAAAAAAAAAAAAAAAAAAAAAAAAAAAAAAAAAAAAAAAAAAAAAAAAAAAAAAAAAAAAAAAAAAAAAAAAAAAAAAAAAAAAAAAAAAAAAAAAAAAAAAAAAAAAAAAAAAAAAAAAAAAAAAAAAAAAAAAAAAAAAAAAAAAAAAAAAAAAAAAAAAAAAAAAAAAAAAAAAAAAAAAAAAAAAAAAAAAAAAAAAAAAAAAAAAAAAAAAAAAAAAAAAAAAAAAAAAAAAAAAAAAAAAAAAAAAAAAAAAAAAAAAAAAAAAAAAAAAAAAAAAAAAAAAAAAAAAAAAAAAAAAAAAAAAAAAAAAAAAAAAAAAAAAAAAAAAAAAAAAAAAAAAAAAAAAAAAAAAAAAAAAAAAAAAAAAAAAAAAAAAAAAAAAAAAAAAAAAAAAAAAAAAAAAAAAAAAAAAAAAAB//Z;imageBorder=default;dashed=1;dashPattern=8 8;" vertex="1" parent="1">
          <mxGeometry x="536" y="196.75" width="100" height="52.25" as="geometry" />
        </mxCell>
        <mxCell id="VRgb0AQ02M4O2JBaCQAd-18" value="" style="group;fillColor=#e1d5e7;strokeColor=#9673a6;" vertex="1" connectable="0" parent="1">
          <mxGeometry x="680" y="140" width="100" height="170" as="geometry" />
        </mxCell>
        <mxCell id="VRgb0AQ02M4O2JBaCQAd-17" value="" style="rounded=0;whiteSpace=wrap;html=1;" vertex="1" parent="VRgb0AQ02M4O2JBaCQAd-18">
          <mxGeometry width="100" height="170" as="geometry" />
        </mxCell>
        <mxCell id="VRgb0AQ02M4O2JBaCQAd-15" value="" style="group" vertex="1" connectable="0" parent="VRgb0AQ02M4O2JBaCQAd-18">
          <mxGeometry x="20" y="9.120000000000005" width="64.06999999999994" height="151.88" as="geometry" />
        </mxCell>
        <mxCell id="VRgb0AQ02M4O2JBaCQAd-3" value="" style="shape=image;verticalLabelPosition=bottom;labelBackgroundColor=default;verticalAlign=top;aspect=fixed;imageAspect=0;editableCssRules=.*;image=data:image/svg+xml,PHN2ZyB4bWxuczp4bGluaz0iaHR0cDovL3d3dy53My5vcmcvMTk5OS94bGluayIgeG1sbnM9Imh0dHA6Ly93d3cudzMub3JnLzIwMDAvc3ZnIiB4bWw6c3BhY2U9InByZXNlcnZlIiB2aWV3Qm94PSI2LjUgMCA0NSA1OCIgaWQ9IkNhcGFfMSIgdmVyc2lvbj0iMS4xIiB3aWR0aD0iNjIwLjY4OTY1NTE3MjQxMzgiIGhlaWdodD0iODAwIiBmaWxsPSIjMDAwMDAwIj4mI3hhOzxnPiYjeGE7CTxwYXRoIGQ9Ik01MC45NDksMTIuMTg3bC0xLjM2MS0xLjM2MWwtOS41MDQtOS41MDVjLTAuMDAxLTAuMDAxLTAuMDAxLTAuMDAxLTAuMDAyLTAuMDAxbC0wLjc3LTAuNzcxJiMxMDsmIzk7JiM5O0MzOC45NTcsMC4xOTUsMzguNDg2LDAsMzcuOTg1LDBIOC45NjNDNy43NzYsMCw2LjUsMC45MTYsNi41LDIuOTI2VjM5djE2LjUzN1Y1NmMwLDAuODM3LDAuODQxLDEuNjUyLDEuODM2LDEuOTA5JiMxMDsmIzk7JiM5O2MwLjA1MSwwLjAxNCwwLjEsMC4wMzMsMC4xNTIsMC4wNDNDOC42NDQsNTcuOTgzLDguODAzLDU4LDguOTYzLDU4aDQwLjA3NGMwLjE2LDAsMC4zMTktMC4wMTcsMC40NzUtMC4wNDgmIzEwOyYjOTsmIzk7YzAuMDUyLTAuMDEsMC4xMDEtMC4wMjksMC4xNTItMC4wNDNDNTAuNjU5LDU3LjY1Miw1MS41LDU2LjgzNyw1MS41LDU2di0wLjQ2M1YzOVYxMy45NzhDNTEuNSwxMy4yMTEsNTEuNDA3LDEyLjY0NCw1MC45NDksMTIuMTg3JiMxMDsmIzk7JiM5O3ogTTM5LjUsMy41NjVMNDcuOTM1LDEySDM5LjVWMy41NjV6IE04Ljk2Myw1NmMtMC4wNzEsMC0wLjEzNS0wLjAyNS0wLjE5OC0wLjA0OUM4LjYxLDU1Ljg3Nyw4LjUsNTUuNzIxLDguNSw1NS41MzdWNDFoNDF2MTQuNTM3JiMxMDsmIzk7JiM5O2MwLDAuMTg0LTAuMTEsMC4zNC0wLjI2NSwwLjQxNEM0OS4xNzIsNTUuOTc1LDQ5LjEwOCw1Niw0OS4wMzcsNTZIOC45NjN6IE04LjUsMzlWMi45MjZDOC41LDIuNzA5LDguNTMzLDIsOC45NjMsMmgyOC41OTUmIzEwOyYjOTsmIzk7QzM3LjUyNSwyLjEyNiwzNy41LDIuMjU2LDM3LjUsMi4zOTFWMTMuNzhjLTAuNTMyLTAuNDgtMS4yMjktMC43OC0yLTAuNzhjLTAuNTUzLDAtMSwwLjQ0OC0xLDFzMC40NDcsMSwxLDFjMC41NTIsMCwxLDAuNDQ5LDEsMXY0JiMxMDsmIzk7JiM5O2MwLDEuMiwwLjU0MiwyLjI2NiwxLjM4MiwzYy0wLjg0LDAuNzM0LTEuMzgyLDEuOC0xLjM4MiwzdjRjMCwwLjU1MS0wLjQ0OCwxLTEsMWMtMC41NTMsMC0xLDAuNDQ4LTEsMXMwLjQ0NywxLDEsMSYjMTA7JiM5OyYjOTtjMS42NTQsMCwzLTEuMzQ2LDMtM3YtNGMwLTEuMTAzLDAuODk3LTIsMi0yYzAuNTUzLDAsMS0wLjQ0OCwxLTFzLTAuNDQ3LTEtMS0xYy0xLjEwMywwLTItMC44OTctMi0ydi00JiMxMDsmIzk7JiM5O2MwLTAuNzcxLTAuMzAxLTEuNDY4LTAuNzgtMmgxMS4zODljMC4xMzUsMCwwLjI2NS0wLjAyNSwwLjM5MS0wLjA1OGMwLDAuMDE1LDAuMDAxLDAuMDIxLDAuMDAxLDAuMDM2VjM5SDguNXoiLz4mI3hhOwk8cGF0aCBkPSJNMTYuMzU0LDUxLjQzYy0wLjAxOSwwLjQ0Ni0wLjE3MSwwLjc2NC0wLjQ1OCwwLjk1cy0wLjY3MiwwLjI4LTEuMTU1LDAuMjhjLTAuMTkxLDAtMC4zOTYtMC4wMjItMC42MTUtMC4wNjgmIzEwOyYjOTsmIzk7cy0wLjQyOS0wLjA5OC0wLjYyOS0wLjE1N3MtMC4zODUtMC4xMjMtMC41NTQtMC4xOTFzLTAuMjk5LTAuMTM1LTAuMzktMC4xOThsLTAuNjk3LDEuMTA3YzAuMTgzLDAuMTM3LDAuNDA1LDAuMjYsMC42NywwLjM2OSYjMTA7JiM5OyYjOTtzMC41NCwwLjIwNywwLjgyNywwLjI5NHMwLjU2NSwwLjE1LDAuODM0LDAuMTkxczAuNTA0LDAuMDYyLDAuNzA0LDAuMDYyYzAuNDAxLDAsMC43OTEtMC4wMzksMS4xNjktMC4xMTYmIzEwOyYjOTsmIzk7YzAuMzc4LTAuMDc3LDAuNzEzLTAuMjE0LDEuMDA1LTAuNDFzMC41MjQtMC40NTYsMC42OTctMC43NzlzMC4yNi0wLjcyMywwLjI2LTEuMTk2di03Ljg0OGgtMS42NjhWNTEuNDN6Ii8+JiN4YTsJPHBhdGggZD0iTTI1LjA4Myw0OS4wNjRjLTAuMzE0LTAuMjI4LTAuNjU0LTAuNDIyLTEuMDE5LTAuNTgxcy0wLjcwMi0wLjMyMy0xLjAxMi0wLjQ5MnMtMC41NjktMC4zNjQtMC43NzktMC41ODgmIzEwOyYjOTsmIzk7cy0wLjMxNC0wLjUxOC0wLjMxNC0wLjg4MmMwLTAuMTQ2LDAuMDM2LTAuMjk5LDAuMTA5LTAuNDU4czAuMTczLTAuMzAzLDAuMzAxLTAuNDMxczAuMjczLTAuMjM0LDAuNDM4LTAuMzIxJiMxMDsmIzk7JiM5O3MwLjMzNy0wLjEzOSwwLjUyLTAuMTU3YzAuMzI4LTAuMDI3LDAuNTk3LTAuMDMyLDAuODA3LTAuMDE0czAuMzc4LDAuMDUsMC41MDYsMC4wOTZzMC4yMjYsMC4wOTEsMC4yOTQsMC4xMzcmIzEwOyYjOTsmIzk7czAuMTMsMC4wODIsMC4xODUsMC4xMDljMC4wMDktMC4wMDksMC4wMzYtMC4wNTUsMC4wODItMC4xMzdzMC4xMDEtMC4xODUsMC4xNjQtMC4zMDhzMC4xMzItMC4yNTUsMC4yMDUtMC4zOTYmIzEwOyYjOTsmIzk7czAuMTM3LTAuMjcxLDAuMTkxLTAuMzljLTAuMjY1LTAuMTczLTAuNjEtMC4yOTktMS4wMzktMC4zNzZzLTAuODUzLTAuMTE2LTEuMjcxLTAuMTE2Yy0wLjQxLDAtMC44LDAuMDYzLTEuMTY5LDAuMTkxJiMxMDsmIzk7JiM5O3MtMC42OTIsMC4zMTMtMC45NzEsMC41NTRzLTAuNDk5LDAuNTM1LTAuNjYzLDAuODgyUzIwLjQsNDYuMTMsMjAuNCw0Ni41NzZjMCwwLjQ5MiwwLjEwNCwwLjkwMiwwLjMxNCwxLjIzJiMxMDsmIzk7JiM5O3MwLjQ3NCwwLjYxMywwLjc5MywwLjg1NHMwLjY2MSwwLjQ1MSwxLjAyNSwwLjYyOXMwLjcwNCwwLjM1NSwxLjAxOSwwLjUzM3MwLjU3NiwwLjM3NiwwLjc4NiwwLjU5NXMwLjMxNCwwLjQ4MywwLjMxNCwwLjc5MyYjMTA7JiM5OyYjOTtjMCwwLjUxMS0wLjE0OCwwLjg5Ni0wLjQ0NCwxLjE1NXMtMC43MjMsMC4zOS0xLjI3OCwwLjM5Yy0wLjE4MywwLTAuMzc4LTAuMDE5LTAuNTg4LTAuMDU1cy0wLjQxOS0wLjA4NC0wLjYyOS0wLjE0NCYjMTA7JiM5OyYjOTtzLTAuNDEyLTAuMTIzLTAuNjA4LTAuMTkxcy0wLjM1Ny0wLjEzOS0wLjQ4NS0wLjIxMmwtMC4yODcsMS4xNzZjMC4xNTUsMC4xMzcsMC4zNCwwLjI1MywwLjU1NCwwLjM0OXMwLjQzOSwwLjE3MSwwLjY3NywwLjIyNiYjMTA7JiM5OyYjOTtjMC4yMzcsMC4wNTUsMC40NzIsMC4wOTQsMC43MDQsMC4xMTZzMC40NTgsMC4wMzQsMC42NzcsMC4wMzRjMC41MTEsMCwwLjk2Ni0wLjA3NywxLjM2Ny0wLjIzMnMwLjczOC0wLjM2MiwxLjAxMi0wLjYyMiYjMTA7JiM5OyYjOTtzMC40ODUtMC41NjEsMC42MzYtMC45MDJzMC4yMjYtMC42OTUsMC4yMjYtMS4wNmMwLTAuNTM4LTAuMTA0LTAuOTc4LTAuMzE0LTEuMzE5UzI1LjM5Nyw0OS4yOTIsMjUuMDgzLDQ5LjA2NHoiLz4mI3hhOwk8cGF0aCBkPSJNMzQuODcyLDQ1LjA3MmMtMC4zNzgtMC40MjktMC44Mi0wLjc1NC0xLjMyNi0wLjk3OHMtMS4wNi0wLjMzNS0xLjY2MS0wLjMzNXMtMS4xNTUsMC4xMTEtMS42NjEsMC4zMzUmIzEwOyYjOTsmIzk7cy0wLjk0OCwwLjU0OS0xLjMyNiwwLjk3OHMtMC42NzUsMC45NjQtMC44ODksMS42MDZzLTAuMzIxLDEuMzg4LTAuMzIxLDIuMjM1czAuMTA3LDEuNTk1LDAuMzIxLDIuMjQyczAuNTExLDEuMTg1LDAuODg5LDEuNjEzJiMxMDsmIzk7JiM5O3MwLjgyLDAuNzUyLDEuMzI2LDAuOTcxczEuMDYsMC4zMjgsMS42NjEsMC4zMjhzMS4xNTUtMC4xMDksMS42NjEtMC4zMjhzMC45NDgtMC41NDIsMS4zMjYtMC45NzFzMC42NzUtMC45NjYsMC44ODktMS42MTMmIzEwOyYjOTsmIzk7czAuMzIxLTEuMzk1LDAuMzIxLTIuMjQycy0wLjEwNy0xLjU5My0wLjMyMS0yLjIzNVMzNS4yNSw0NS41MDEsMzQuODcyLDQ1LjA3MnogTTM0LjE5NSw1MC42OTgmIzEwOyYjOTsmIzk7Yy0wLjEzNywwLjQ4Ny0wLjMyNiwwLjg4Mi0wLjU2NywxLjE4M3MtMC41MTUsMC41MTgtMC44MiwwLjY0OXMtMC42MjcsMC4xOTgtMC45NjQsMC4xOThjLTAuMzI4LDAtMC42NDEtMC4wNy0wLjkzNy0wLjIxMiYjMTA7JiM5OyYjOTtzLTAuNTYxLTAuMzY0LTAuNzkzLTAuNjdzLTAuNDE1LTAuNjk5LTAuNTQ3LTEuMTgzcy0wLjIwMy0xLjA2Ni0wLjIxMi0xLjc1YzAuMDA5LTAuNzAyLDAuMDgyLTEuMjk0LDAuMjE5LTEuNzc3JiMxMDsmIzk7JiM5O2MwLjEzNy0wLjQ4MywwLjMyNi0wLjg3NywwLjU2Ny0xLjE4M3MwLjUxNS0wLjUyMSwwLjgyLTAuNjQ5czAuNjI3LTAuMTkxLDAuOTY0LTAuMTkxYzAuMzI4LDAsMC42NDEsMC4wNjgsMC45MzcsMC4yMDUmIzEwOyYjOTsmIzk7czAuNTYxLDAuMzYsMC43OTMsMC42N3MwLjQxNSwwLjcwNCwwLjU0NywxLjE4M3MwLjIwMywxLjA2LDAuMjEyLDEuNzQzQzM0LjQwNSw0OS42MTYsMzQuMzMyLDUwLjIxMSwzNC4xOTUsNTAuNjk4eiIvPiYjeGE7CTxwb2x5Z29uIHBvaW50cz0iNDQuMDEyLDUwLjg2OSA0MC4wNjEsNDMuOTI0IDM4LjM5Myw0My45MjQgMzguMzkzLDU0IDQwLjA2MSw1NCA0MC4wNjEsNDcuMDU1IDQ0LjAxMiw1NCA0NS42OCw1NCA0NS42OCw0My45MjQgJiMxMDsmIzk7JiM5OzQ0LjAxMiw0My45MjQiLz4mI3hhOwk8cGF0aCBkPSJNMjAuNSwyMHYtNGMwLTAuNTUxLDAuNDQ4LTEsMS0xYzAuNTUzLDAsMS0wLjQ0OCwxLTFzLTAuNDQ3LTEtMS0xYy0xLjY1NCwwLTMsMS4zNDYtMywzdjRjMCwxLjEwMy0wLjg5NywyLTIsMiYjMTA7JiM5OyYjOTtjLTAuNTUzLDAtMSwwLjQ0OC0xLDFzMC40NDcsMSwxLDFjMS4xMDMsMCwyLDAuODk3LDIsMnY0YzAsMS42NTQsMS4zNDYsMywzLDNjMC41NTMsMCwxLTAuNDQ4LDEtMXMtMC40NDctMS0xLTEmIzEwOyYjOTsmIzk7Yy0wLjU1MiwwLTEtMC40NDktMS0xdi00YzAtMS4yLTAuNTQyLTIuMjY2LTEuMzgyLTNDMTkuOTU4LDIyLjI2NiwyMC41LDIxLjIsMjAuNSwyMHoiLz4mI3hhOwk8Y2lyY2xlIHI9IjEuNSIgY3k9IjE5LjUiIGN4PSIyOC41Ii8+JiN4YTsJPHBhdGggZD0iTTI4LjUsMjVjLTAuNTUzLDAtMSwwLjQ0OC0xLDF2M2MwLDAuNTUyLDAuNDQ3LDEsMSwxczEtMC40NDgsMS0xdi0zQzI5LjUsMjUuNDQ4LDI5LjA1MywyNSwyOC41LDI1eiIvPiYjeGE7PC9nPiYjeGE7PC9zdmc+;" vertex="1" parent="VRgb0AQ02M4O2JBaCQAd-15">
          <mxGeometry x="2.5399999999999636" width="51" height="65.7" as="geometry" />
        </mxCell>
        <mxCell id="VRgb0AQ02M4O2JBaCQAd-7" value="" style="shape=image;verticalLabelPosition=bottom;labelBackgroundColor=default;verticalAlign=top;aspect=fixed;imageAspect=0;image=data:image/png,iVBORw0KGgoAAAANSUhEUgAAANoAAADnCAMAAABPJ7iaAAAAhFBMVEX///8AAADGxsYvLy+IiIgeHh67u7umpqbDw8MkJCTs7OyLi4twcHCysrLJycnMzMxoaGj5+fnl5eXV1dXz8/NNTU3b29uenp5bW1s+Pj7j4+PT09N+fn6srKy1tbW+vr43NzeUlJQUFBRFRUUpKSkMDAw5OTl2dnZdXV1ra2uAgIBLS0vsNT+QAAAJDklEQVR4nO2d6XrqIBCG0VprXerSuNWlRmuX0/u/v1O1MXwEkklCZNKH719TArxCWAYYhLiou+kvH+9vqsZ9LxCVK/hquNGgarKOI7Afbaole3JHVjHbi0uyatl2btEq/N5eHZNVyLZwTdZobKshG7vmOqkatplrrLPaVaA1XVNdVAUbE7TG699Fq4CNDVqjUzHa/LVdsV7DW7Eh2pvl2HUa3qrcEO3ObuRapYzGm1YTcozWG0H6TzYTco2mDPRssjlHU9iG9hJyj1YZGwM0Ma2GjQOawvZsKSEWaOK7CjYeaArbzEpCTNDE0j4bFzRxsM7GBk2822bjg6bUyZfSCTFCUyyipdk4oY3vrLJxQhPjN8jNpFxCrNDssvFCE+NHe2zM0FS2bomEuKGJ4N4WGzs0EewtsfFDs1ZuDNFEAHk6FmXjiKbWyYJ7MFiiKeW2L8bGE010j+XLjSma6EK+7ouwcUVT2IrUSbZoYgI5e8zPxhdNZRvnTYgxmsL2lpeNM5rCdpeTjTWasn8sJxtvNIVtl4uNOZqyZWeXJyHuaArbMkdC7NEUtnd6Qo7R+oQXkO1ATuj2aLi5gvLGc7E6eXs0LISQ8soKXvkmJnR7NGUH5pzyDpYbsU7eHk2g+buxmw8y1f6AV6akdBygYTYLicTmAM3GZr6P3OncBE1YQKMsLbpACy2gEVofF2g2dqkTaqQLNDEoj8a01IQof6jsITsRN2jK1qU/hSZ6fxdNvJQrOM5oP4Pezz+L9tMLbD8eDVmvO9pJQZemYFQ7NLL6Hu0qj8ZAHi2WR2MgjxbLozGQR4vl0RjIo8XyaAzk0WJ5NAbyaLE8GgN5tFgejYE8WiyPxkAeLZZHYyCPFsujMZBHi1UfNNxGSXC8mwet2Zvu7lxph+dH7zVBlv0H+fg9GS0ouz/nNjo0c6M9OMpqfk27+dBKbxe7pZp50JaGSJiqQ0dj4PY5n2ZUtLmjDBbXnojWNbzPWT0a2tpR9kppTEFj4YU8tzYUNPde8Yvom4LWcpS5khoT0GrVW8eaENDuDO8y15CAVnR3sGN1PFoN5dHqKI9WR9lDm348bJ9Ww057M++/Z4Q99OeDznB4CVzVLNcO2r63wleC9sgY+J8SVoybYIbD63jCZAQjCGA8CW0D7aD1wW8wgBnOQUqTXXQDoLlmDNmN2bKAZrzwopscfH4aPUYFsUdn9OS5T0QCcbSrQ1ukuaRRCy716Oq1CqPDh8S8Aw/Sm8fuZdEyjhCHEDjDbUqUyyM8XalJgrE/xbZREi3zcLT8kWf50rjO5vGugqOSJniLTDFIlUMjOFmQXs700BzlEz3HKE3gI/wT/X9aRCO4for9pmCb/Ryu13P1SgJtvMr1mfAlohsSi2ikC+Gu5jCoZr9HzpfYGkYFhDcEYqLg1iHN1lYGLeFjJ9i21r2t4oX5+gXJD8NrJPDlRHlBr0vQ+9+nUNtDUzu0f7/PP7Ce/hYFOK2Jm+wF/DbRU/h5tnKia/k/qba2MmgYqisFg6KYaRj6hrCRh3HoJsAvK4x8UpciSqApPt3ltmoP5XaXRAtiL+ltEXRfZs325iFcf0WR7CFuuVs2MttEw1EurqFH1WY8DKN8KR3F1jx+PgkKR1q1HBme20WDklFHBT+PXrbrnfII9TLovzUMGhkih9se06+xLY6G7aM6KvhIujfQOuMJ2oZJiaZKnyQPjTOuDS2O1oIwBAvzWhP1Wc+hJgUYKYbRU6jVGQb74mg4ik9OPZJKcRU+TPw00LVdyweAM5Irjga1Pr2t+tVCE3ec+28lNNTf6JuUf50sb1zF0WDcNNEGUZU+qdlgYKjwLU3u0pvYMmjQ9qcNUyX9S2VTmgX5X7+TNnlonFlRiqPBqD0xXzTokOqaH38gGMddHsmVdKOJvgo0Yqn9qJfmTxuyC5/muYuAqVqmjc9ShcxzM/VHirc5WMpLtBlyfc7+uoujwe2m+bZfvM1NE26wT0H3cnogt1xhhWiwHzH3JoX96EFbeMa8nNpD+W/VYmITDU1qqo1iIZrrzNQXg8SHB9MUGb6NJhPzPcAW0D4hjDqaOA8bZmHmtz5SmkywXMpDswAv1O6bIrSBhjP5UPlvlOPuQB4nH9++R+tWCIGxXuI8BX88acRM+QBKTGpgkq+Y5mFOcp4VzCbdOGvG/CveFeVyepgag1lHw33NWCOhKM6jJGgTYcYDF7djqcld20RuMNUBp2U0dD4MzT/OCt4SAGDIgdG8skogf4lSfST1NWXMPmiVkwYkLc0/8JkcJYyzlebIsP4RVo2mej4PLz3AVFkavDRm2OpInybMLtXmAd/KzJE1tKQRf7J6mqnG8miEji3hJFoTxklcYrVMXUE9izZiLYVGcvUd2T7UMm72FstpT7H6Jww52qUgmrfrcssZBC+28cCZcNVYJ5mELhiJrOz6Wvat3bHRhLBipbGwaJZMzGu8NtEyb5CUe7DMMtb5L9WsNxJ35pdey05fD8ShXjs1rMEXcqIeUydQ5XcgGDcgiGQxDFLCjg2FkbilgXrowMLmirVpbXSV/HT6xnVUTQty0aMakrqvyspun1D3xc30nn9b2hr8etAGPkvp2si2Ckt7tJbhEGaVq9C4UNF4DzvwU8w26Q7HR6uhpBVhpnaRzZ11u8/++kf9BeGFx8PnaPT1NaKELSi/abCO8mh1lEeroyho5i6KtShoWZukmYpyXKj87SRO1CWg1e9871mUU4d5Fs/46JN0wreW7cgrCS1z2ZijBO00PWXDCzMNiGiEhTpmOltuSe4dQif5K67jmIxWs7PZx4sZjOhKpU6d2/uvMYPqAOelNt5UrqZcukemYR0cqtzPY3tgHmdT46d5r+VKPVzGWWhyEm7BFFgfF2E4TLfsIsyt/vBNXh4tlkdjII8Wy6MxkEeL5dEYyKPF8mgM5NFieTQG8mixPBoDfZZDa2yGTzw1VIy8+dFqI49WRxHQnlznsaAIaPVchM/co31SPX1RE1xX/Shl2y9jHbPBaCf4+CmxR16rFA9ifEXwTibynPLno9dsrLPqt+WFVh1P2mZHxkqEw2VXTerUTN6pXvwyNAvrQffe0p6x1Ok/kka9G7L4wnIAAAAASUVORK5CYII=;" vertex="1" parent="VRgb0AQ02M4O2JBaCQAd-15">
          <mxGeometry y="84" width="64.07" height="67.88" as="geometry" />
        </mxCell>
        <mxCell id="VRgb0AQ02M4O2JBaCQAd-28" value="" style="endArrow=classic;html=1;rounded=0;" edge="1" parent="1">
          <mxGeometry width="50" height="50" relative="1" as="geometry">
            <mxPoint x="636" y="224.5" as="sourcePoint" />
            <mxPoint x="680" y="225" as="targetPoint" />
          </mxGeometry>
        </mxCell>
        <mxCell id="VRgb0AQ02M4O2JBaCQAd-29" value="" style="edgeStyle=orthogonalEdgeStyle;rounded=0;orthogonalLoop=1;jettySize=auto;html=1;" edge="1" parent="1" source="VRgb0AQ02M4O2JBaCQAd-17" target="VRgb0AQ02M4O2JBaCQAd-8">
          <mxGeometry relative="1" as="geometry" />
        </mxCell>
        <mxCell id="VRgb0AQ02M4O2JBaCQAd-30" value="Load Evaluation Dataset&lt;div&gt;(eval_questions.json)&lt;/div&gt;" style="text;html=1;align=center;verticalAlign=middle;resizable=0;points=[];autosize=1;strokeColor=none;fillColor=none;" vertex="1" parent="1">
          <mxGeometry x="55" y="263" width="150" height="40" as="geometry" />
        </mxCell>
        <mxCell id="VRgb0AQ02M4O2JBaCQAd-31" value="&lt;div&gt;Evaluate using 13+ metrics via `ragas`&lt;/div&gt;&lt;div&gt;&lt;span style=&quot;background-color: transparent; color: light-dark(rgb(0, 0, 0), rgb(255, 255, 255));&quot;&gt;(context_recall, answer_accuracy, etc.)&lt;/span&gt;&lt;/div&gt;" style="text;html=1;align=center;verticalAlign=middle;resizable=0;points=[];autosize=1;strokeColor=none;fillColor=none;" vertex="1" parent="1">
          <mxGeometry x="450" y="263" width="230" height="40" as="geometry" />
        </mxCell>
        <mxCell id="VRgb0AQ02M4O2JBaCQAd-32" value="&lt;div&gt;Save results to CSV + JSON&lt;/div&gt;&lt;div&gt;&lt;span style=&quot;background-color: transparent; color: light-dark(rgb(0, 0, 0), rgb(255, 255, 255));&quot;&gt;e.g., outputs/ragas_eval/ml_groq.json&amp;nbsp;&lt;/span&gt;&lt;/div&gt;" style="text;html=1;align=center;verticalAlign=middle;resizable=0;points=[];autosize=1;strokeColor=none;fillColor=none;" vertex="1" parent="1">
          <mxGeometry x="625" y="323" width="230" height="40" as="geometry" />
        </mxCell>
        <mxCell id="VRgb0AQ02M4O2JBaCQAd-33" value="&lt;div&gt;Send to frontend for visualization&lt;/div&gt;&lt;div&gt;&lt;span style=&quot;background-color: transparent; color: light-dark(rgb(0, 0, 0), rgb(255, 255, 255));&quot;&gt;Table / Charts / Radar Graphs&lt;/span&gt;&lt;/div&gt;" style="text;html=1;align=center;verticalAlign=middle;resizable=0;points=[];autosize=1;strokeColor=none;fillColor=none;" vertex="1" parent="1">
          <mxGeometry x="800" y="270" width="200" height="40" as="geometry" />
        </mxCell>
      </root>
    </mxGraphModel>
  </diagram>
</mxfile>
